<svg id="Capa_1" data-name="Capa 1" xmlns="http://www.w3.org/2000/svg" viewBox="0 0 999.91 1044"><defs><style>.cls-1{fill:#fff;}.cls-2{fill:#060606;}.cls-3{fill:#1f1f1f;}.cls-4{fill:#090909;}.cls-5{fill:#2c2c2c;}.cls-6{fill:#343434;}.cls-7{fill:#f2f2f2;}.cls-8{fill:#141e24;}</style></defs><title>logo_principal</title><circle class="cls-1" cx="477.66" cy="442.75" r="436.52"/><path class="cls-2" d="M499.12,14c194.07,0,366.25,126.83,422.71,311.44,57.11,186.72-13.7,387.13-175.43,496.46-2.94,2-5.9,4-9,5.77-9,5.31-17.65,4.43-23.41-4.35-5.64-8.59-3.78-17.37,4.66-23.52,18.21-13.28,37.12-25.67,53.46-41.33C893.56,642,937,501,889,340.05c-47.64-160-159.4-258.09-324.49-286C299.87,9.39,69.77,226.35,92.86,494.65,110.13,695.25,283.74,858.46,484.64,863c3.56.08,7.13,0,10.68.27,11.15.83,20.5,4.9,20.21,17.66s-9.33,17-20.81,16.74c-26.75-.49-53.38-2.71-79.61-8C227.93,852,88.19,704.38,60.82,515.57,26.14,276.29,200.69,47.51,440.54,17.45A499.59,499.59,0,0,1,499.12,14Z" transform="translate(-24.11 -14)"/><path class="cls-3" d="M616.6,394.1c23.44,15.71,23.51,15.78,43.25-5.78q51.51-56.25,102.87-112.62c14.29-15.63,14.23-15.5,27.46,1.6,5,6.43,7.08,15,14.45,19.63.18,5.14-3.62,4.91-7,5.22-2.37-.39-4.88-1-6.44-2.74-9.33-10.54-14.13-4.7-19.61,4.37-10.32,17.1-19.58,34.86-30.09,51,22.57-12.95,38.15-47.45,73.89-26.91,5.3,3.68,12.46-.92,17.53,3.83l39.26,43.9c-22.72-2.49-40.8-3.57-58.5-6.76-10.12-1.82-16.6,1-23.7,7.61-44,40.66-88.67,80.63-132.36,121.64-9.36,8.79-15.56,8.61-25.53,1.72-19-13.13-39.43-24.17-58.48-37.24-9.86-6.76-15.18-5.94-23,3.45-34.51,41.52-70.26,82-104.82,123.48-7.49,9-13.42,10.41-23.62,5.14-20.51-10.61-42-19.37-62.39-30.12-10.39-5.46-17.77-4.25-27.31,2.2-40.77,27.55-82.12,54.23-123.37,81.07-4.72,3.08-8.92,7.67-18.17,8.27,15-21.48,28.5-41,42.14-60.52,30.95-44.21,62.28-88.15,92.69-132.72,8.11-11.88,13.17-17.75,25.16-3.4,7.79,9.3,19.73,15.12,29.81,22.51.42,3.2-1.58,4.5-4.17,5.35-7.89.93-13.25-4.19-19.07-8.09-14.77-9.88-15-9.9-22.11,7s-12.86,34.35-22,51.31c7.59-8.09,13.06-16.89,20.27-24.26,7.71-7.88,15.84-12.49,26.61-5.71,4.11,2.58,7.28,5.48,9.61-2.79,2.06-7.35,9.64-4.57,15.39-3.84,3.5.45,8.42,4,8.59-3.66,1.37-2.13,2.93-3.65,5.63-2.11,22.78,14.78,22.79,14.78,39.11-7.17l105.8-142.29c7.47-1.24,9.13,3.61,9.88,9.41-8.06,24.66-19.6,47.94-28.08,71.1,31.81-35.75,29.49-34.08,50.77-19,3.08-22.54,18.28-9.69,29-10.08C609.71,396.75,613.1,395.23,616.6,394.1Z" transform="translate(-24.11 -14)"/><path class="cls-4" d="M941.33,1022.84c16.2.6,31.43,1.32,46.45-3.23,10.81-3.27,22-1.49,24.41,10.15,2.33,11.28-9.27,15.29-18.18,17.48-16.13,4-32.75,5.11-49.38,5-26.79-.24-39.14-19.65-28.46-44.78,3-7.08,6.82-13.8,10.08-20.78,4.75-10.18,1.29-32-5.39-34.95-11.47-5-38.35,4-42.9,14.39-7.11,16.25-14.68,32.34-21,48.9-3.1,8.16-9.69,17.19.42,25.84,3.69,3.15,2.91,7.74-.4,11-3.82,3.81-8.22,3.48-13.08,1.24-12.15-5.61-18.36-24.16-12.4-42.33,5.49-16.71,12.49-32.93,19.15-50.21-13.83-2.66-27.07,4.69-40.53-1.39-5.25-2.37-4.62,6.61-5.63,10.75-8.1,33.05-29.3,56.44-57.64,72.55-29.8,17-51.7,4.76-56.16-29.42-2.72-20.79,1-41.37,4.62-61.83.87-5,3.62-9.34,8.34-10.63,5.19-1.41,6.43,4.5,8.76,7.43,7.56,9.49,11.86,19.32,7.75,32.57-3,9.74-6,24.48,2.47,30,9.91,6.42,21.06-3.88,29.9-10.48,15.43-11.51,23.54-27.78,27.26-46.45q2.25-11.26,5.09-22.4c1-3.95,4.18-6.94,7.71-3.8,21.17,18.79,43.43,2,65,2,20.24-.06,40.45-3.77,60.7-5.46,3.28-.27,8.39.55,9.84,2.73,10.1,15.16,23.08,9.57,36.39,6.59s26.8-4.76,40.3-6.52c9.28-1.21,17.44,3.89,19,11.85,1.43,7.36-6.61,11.72-14,13.57q-20.6,5.2-41.23,10.19c-4.49,1.08-10.88.84-9.85,7.39s7.66,4,11.8,3.92c10.51-.16,20-1.46,29.06,7.92,6.92,7.18,4,8.87-1.32,13-9.57,7.5-20.8,9.49-32,7.63C949.71,999.5,944.46,1008.5,941.33,1022.84Z" transform="translate(-24.11 -14)"/><path class="cls-4" d="M72.46,988.35c13.07-1.28,21.88-1.75,30.56-3.1,8.85-1.38,16.72,1,17.52,9.92.75,8.23-5.7,13-14.8,14-9.95,1.08-19.7,4.75-29.64,5.2-14.8.66-19,10-20.32,21.92-.87,7.78.45,17-11.34,15.22-9.74-1.52-13.77-9.86-12.54-18.61,1.35-9.55,1.26-17.2-4.69-25.9-7.16-10.46-1.41-19.24,12-20,4.86-.27,9,1.64,10.45-5.36,1.21-5.8,2.62-9.16-3.59-14.59-13.36-11.68-10.61-20.71,6.44-26,18.07-5.55,36.24-11,54.67-15.14,26.59-6,54.78,12,62.25,37.91,3.17,11-3.51,20.58-2.78,31.37,1.26,18.59,4.14,21.14,21.2,12.91,21.74-10.5,34.36-28.32,39.64-51.62.26-1.15.19-2.37.45-3.52,2.08-9.39,1.8-25,10.32-25.35,12.54-.53,10.91,15.81,14.55,25.17s.75,19.13-2.78,27.6c-11.21,26.84-29.32,48.56-55,62.34-30.88,16.55-54.41,2.23-56.42-33.28-.93-16.56-.67-33.16,3.64-49.33,2.46-9.24.06-12.93-10.07-12.11A213,213,0,0,0,92,955.26C76.11,959.67,80.87,975.44,72.46,988.35Z" transform="translate(-24.11 -14)"/><path class="cls-2" d="M293.69,1012.7c-7.49,10-12.28,18.67-14.53,28.64a12.16,12.16,0,0,1-9.65,9.44c-5.84,1.28-8.25-3.74-10.63-7.68-7.32-12.13-10.63-24-3-38.12,10.69-19.77,18.89-40.89,29.8-60.52,3.26-5.84.75-21.59,15.39-15.42,12.62,5.31,23.38,14.3,17.54,30.22-4.65,12.68-5.29,25.36-4.85,38.4.12,3.32-1.47,7.79,2.48,9.59,5,2.31,7.34-2.63,9.84-5.5,10.66-12.26,12.72-27.79,15.19-43,1.06-6.49,1.09-13.4,5.2-18.56,3.53-4.43-.54-16.88,9.32-13.15,8.43,3.19,22.7,9.95,18.46,20.48-9.62,23.88-7,50.53-19,73.36a81.77,81.77,0,0,1-11.15,16c-12.75,14.34-19.94,14.12-33.76.38C303.46,1030.51,299.07,1022.12,293.69,1012.7Z" transform="translate(-24.11 -14)"/><path class="cls-5" d="M552,356.9c0-5.45-2.64-9.14-7.58-11.27,3.12-6.18,6.38-2.68,9.64-.15L616.6,394.1c-1.33,4.06-3.37,7.49-7.88,8.65-14.51-11-30.35-20.05-44.54-31.47C559.19,367.26,553.33,364,552,356.9Z" transform="translate(-24.11 -14)"/><path class="cls-6" d="M797.18,299.82l7.45-2.89c11.28,10.06,21.17,21.26,28.26,34.74-5.81-.62-11.31,7.73-17.33.58C812.42,319.75,797.29,314,797.18,299.82Z" transform="translate(-24.11 -14)"/><path class="cls-6" d="M376.35,485.37l4.36-3.47c7.89,2.08,13.48,7.44,18.79,13.19L395.19,499C384.12,501.08,378.12,496.14,376.35,485.37Z" transform="translate(-24.11 -14)"/><path class="cls-7" d="M376.35,485.37c5.08,6.2,11.55,10.48,18.84,13.61-.9,2.71,12,7.09-.55,7.95-6.84.47-13.89-2.28-22.87-3.95,1.36,5.91,2.53,11,3.68,16-2.09.59-3.56,1.51-4.19,1.11-24.66-15.42-24.64-15.43-43.11,6.53-6.29,7.47-12.64,14.88-22.21,20.27,10.6-26.09,21.28-52.15,31.75-78.3,3.06-7.63,7.14-3.49,11-1.28C358.2,472.83,365.36,482,376.35,485.37Z" transform="translate(-24.11 -14)"/><path class="cls-7" d="M552,356.9c16,11.54,32,23,47.88,34.71,3.79,2.81,10.46,3.84,8.85,11.14l-27.41-5.21c1.23,6.2,2.17,10.94,3.08,15.55-4,2.7-6.36.15-8.13-1.65-14-14.23-24.71-11.85-35,4.81C535.17,426,526.47,434.2,517,441.93,528.6,413.3,535.19,383,552,356.9Z" transform="translate(-24.11 -14)"/><path class="cls-7" d="M797.18,299.82c7.19,8.57,14.21,17.29,21.62,25.66,4.86,5.48,2.09,6.56-3.24,6.77-18.82-11.33-34.59-8.64-49.56,8.12-9.57,10.71-21.92,18.92-36.1,25.78q23-39.24,45.91-78.49c3-5.19,6-4.67,9.54-.6C789.17,291.42,793.23,295.58,797.18,299.82Z" transform="translate(-24.11 -14)"/><path class="cls-4" d="M535.31,1029.3c-15-2.16-31.47-3.72-42.66-18.63,11.12-4.32,21.11-7.82,30.78-12.07,9-4,16.17-10.13,17.53-20.7,2-15.71-19-48-33.81-53.15-5.57-1.91-10.12.57-12.85,3.55-20.94,22.87-50.21,40.6-48.85,77.65.19,5.19-1.77,10.45-2.71,15.69-2.05,11.52-3,25.2,9.57,29,13.5,4.06,12.73-11.94,18.39-21.56,17.66,15.65,38,22,58.61,27.57,9.25,2.5,18.76,2.77,21.26-9C553,1036.17,547.58,1031.06,535.31,1029.3Zm-32.22-69.64c4.32-.83,10.68,7.13,8.89,11.16-5.52,12.42-18.49,10.42-31.49,15C486.13,972,491.35,961.93,503.09,959.66Z" transform="translate(-24.11 -14)"/><path class="cls-4" d="M667.13,980.7c-5.64-12.22-15.59-22.89-12.3-39.15,1.95-9.58-17.47-21.44-24.72-16.28-25.9,18.43-52.19,36.85-67.61,65.87-18.28,34.42-3.64,59.6,34.91,61.31,15.53.39,30.36-2.81,44.81-8.47C679.35,1029.44,683.88,1017,667.13,980.7Zm-24.36,30.75a83.06,83.06,0,0,1-45.59,11.9c-3.65-.4-10.71,2.25-14.46-3.32-4.49-6.67,1.78-12,4.74-17.38a77.79,77.79,0,0,1,16.69-20.36c23.39-21.1,39.22-15.92,46.12,14.91C651.92,1004.56,647.92,1008.43,642.77,1011.45Z" transform="translate(-24.11 -14)"/><path d="M471.48,836.26l-10.69-3.56c27.51-14.27,121.64-65.4,121.15-131.85-.3-40.89-34-78-101.75-111.85l.39-.8c68.05,34,108.19,71.4,108.49,112.65.18,25-14.5,53-39.2,78.4C524.34,805.46,494,824.57,471.48,836.26Z" transform="translate(-24.11 -14)"/><path d="M670.52,801.64a18.34,18.34,0,0,1-6.69-1.2c-16.58,24-44.58,45.07-83.85,62.14l5.53,5.75c35.43-15.4,63.88-38.5,82-60.58,1.67-2,3.2-4.11,4.65-6.18C671.6,801.61,671.07,801.64,670.52,801.64Z" transform="translate(-24.11 -14)"/><path d="M537.84,590.38l.33,0q-12.49-4.89-25.57-9.35l-.29.85c8,2.71,15.78,5.6,23.36,8.6A21.68,21.68,0,0,1,537.84,590.38Z" transform="translate(-24.11 -14)"/><path d="M550.05,595.21a15.94,15.94,0,0,1,1.68,2,392.15,392.15,0,0,1,35.7,17.92,21.33,21.33,0,0,1,2.15-.11,19.36,19.36,0,0,1,2,.1A432.47,432.47,0,0,0,550.05,595.21Z" transform="translate(-24.11 -14)"/><path d="M642.52,651c-10.93-10.29-24.09-20-38.94-29a18.07,18.07,0,0,1,2.16,4.33,250.52,250.52,0,0,1,33.44,26.18c1.15,1.08,2.24,2.18,3.34,3.28a14.69,14.69,0,0,1,2.82-2.08C644.4,652.8,643.49,651.87,642.52,651Z" transform="translate(-24.11 -14)"/><path d="M688.85,740.05c-.81-19.49-8.12-40-21.05-59.38a16,16,0,0,1-3.16,3.2,118.76,118.76,0,0,1,17.08,56.18,95.79,95.79,0,0,1-2.88,27.9,15.86,15.86,0,0,1,6.41,6.21A108.21,108.21,0,0,0,688.85,740.05Z" transform="translate(-24.11 -14)"/><path d="M743.68,699.27C717.06,646,639.53,600.6,535,577l2.5.48c53.53,12.08,104.25,30.16,140.66,52.1,34.06,20.53,55,42.36,67.7,67.71Z" transform="translate(-24.11 -14)"/><path class="cls-8" d="M495.11,189.6c-7.79-1.2-14.73,1.3-21.22,5.32-8.87,5.49-17.81,10.88-26.45,16.72-4,2.69-7.35,3.27-12.06,1.57-17.17-6.17-34.54-11.79-51.83-17.61-10.43-3.51-20.88-7-31.31-10.49a3.2,3.2,0,0,0-3.07.1c-4.32,2.79-8.71,5.47-13,8.25-1.65,1-1.64,1.93-.06,3.15,2.35,1.82,4.72,3.59,7.09,5.37l25.5,19.13.78.64c0,.1,27.91,20.16,28.18,21.11-.23.22-2.82,1.72-3.05,1.93q-12.26,7.67-24.5,15.32a3.22,3.22,0,0,1-3.17.44c-7.87-2.73-15.8-5.26-23.68-8a4,4,0,0,0-3.83.55c-2.77,1.86-5.63,3.58-8.45,5.35s-2.85,2.32-.26,4.3q13.26,10.15,26.55,20.27a4.3,4.3,0,0,1,1.74,2.81c2.23,11.06,4.53,22.11,6.82,33.16.52,2.48,1.24,2.8,3.39,1.46,3.14-1.94,6.24-4,9.41-5.86a3.35,3.35,0,0,0,1.7-2.78c1-8.34,2.16-16.67,3.17-25a3.07,3.07,0,0,1,1.63-2.53q11.07-6.88,22.09-13.85c1.74-1.1,3.45-2.23,5.36-3.47.23,1.09.39,1.79.53,2.49q7.21,36.18,14.44,72.34c.56,2.81,1.21,3.09,3.6,1.6,4.06-2.54,8.09-5.11,12.16-7.61a3.38,3.38,0,0,0,1.76-2.75c.91-7.76,1.94-15.52,2.92-23.27q2.58-20.6,5.14-41.17c.89-7.16,2-14.29,2.51-21.48h0c.11-.57.23-1.14.34-1.7a5.77,5.77,0,0,0,.32-2.76h0c0-2.71,1.56-4.12,3.75-5.46q14.91-9.15,29.64-18.59c6.17-4,11.09-9.06,13.38-16.26C505.16,195.67,502.1,190.67,495.11,189.6Z" transform="translate(-24.11 -14)"/></svg>