<?xml version="1.0" encoding="utf-8"?>
<!-- Generator: Adobe Illustrator 26.0.0, SVG Export Plug-In . SVG Version: 6.00 Build 0)  -->
<svg version="1.1" id="Capa_1" xmlns="http://www.w3.org/2000/svg" xmlns:xlink="http://www.w3.org/1999/xlink" x="0px" y="0px"
	 viewBox="0 0 1056 1080" style="enable-background:new 0 0 1056 1080;" xml:space="preserve">
<style type="text/css">
	.st0{fill:#FFFFFF;}
	.st1{fill:#060606;}
	.st2{fill:#1F1F1F;}
	.st3{fill:#2C2C2C;}
	.st4{fill:#343434;}
	.st5{fill:#F2F2F2;}
	.st6{fill:#141E24;}
</style>
<circle class="st0" cx="501.77" cy="456.75" r="436.52"/>
<path class="st1" d="M499.12,14c194.07-0.02,366.25,126.83,422.71,311.44c57.11,186.72-13.71,387.12-175.43,496.46
	c-2.94,1.99-5.9,3.97-8.97,5.77c-9.04,5.3-17.65,4.43-23.41-4.35c-5.64-8.59-3.78-17.37,4.66-23.52
	c18.22-13.28,37.12-25.67,53.46-41.33c121.42-116.43,164.85-257.44,116.9-418.42C841.4,180.09,729.64,81.96,564.55,54.08
	C299.87,9.39,69.77,226.35,92.86,494.65c17.27,200.6,190.89,363.81,391.78,368.3c3.56,0.08,7.13,0.01,10.68,0.27
	c11.14,0.83,20.5,4.9,20.21,17.66c-0.29,12.61-9.33,16.96-20.81,16.74c-26.75-0.49-53.37-2.71-79.61-7.99
	C227.93,852.01,88.19,704.38,60.82,515.57C26.14,276.29,200.69,47.51,440.54,17.45C460.06,15,479.54,14.15,499.12,14z"/>
<path class="st2" d="M616.6,394.1c23.44,15.71,23.51,15.77,43.25-5.78c34.34-37.5,68.56-75.1,102.87-112.62
	c14.29-15.63,14.23-15.5,27.46,1.6c4.98,6.43,7.08,14.97,14.44,19.63c0.19,5.15-3.61,4.91-7.02,5.23c-2.37-0.39-4.87-0.98-6.44-2.75
	c-9.33-10.53-14.13-4.69-19.61,4.38c-10.33,17.1-19.58,34.86-30.1,50.97c22.57-12.95,38.15-47.45,73.89-26.91
	c5.3,3.69,12.46-0.92,17.53,3.83c12.02,13.44,24.05,26.89,39.26,43.9c-22.73-2.49-40.81-3.57-58.51-6.76
	c-10.12-1.82-16.6,1.04-23.7,7.6c-44.01,40.67-88.67,80.64-132.36,121.64c-9.36,8.79-15.56,8.61-25.54,1.72
	c-19-13.12-39.43-24.17-58.47-37.24c-9.86-6.76-15.19-5.94-22.99,3.45c-34.51,41.52-70.25,82-104.82,123.48
	c-7.49,8.99-13.42,10.41-23.63,5.14c-20.51-10.6-41.97-19.36-62.39-30.11c-10.39-5.47-17.77-4.26-27.31,2.19
	c-40.77,27.55-82.12,54.23-123.36,81.07c-4.73,3.08-8.93,7.67-18.18,8.27c14.96-21.48,28.51-41.03,42.15-60.52
	c30.95-44.21,62.27-88.16,92.69-132.72c8.1-11.87,13.16-17.75,25.16-3.4c7.78,9.31,19.73,15.13,29.81,22.51
	c0.42,3.2-1.59,4.5-4.17,5.35c-7.89,0.93-13.25-4.19-19.07-8.09c-14.76-9.89-14.98-9.9-22.11,6.98
	c-7.12,16.88-12.86,34.36-21.96,51.32c7.58-8.1,13.05-16.89,20.26-24.26c7.72-7.88,15.84-12.49,26.62-5.71
	c4.1,2.58,7.28,5.48,9.6-2.79c2.07-7.35,9.64-4.57,15.39-3.84c3.5,0.45,8.42,3.96,8.59-3.66c1.36-2.13,2.93-3.66,5.63-2.11
	c22.78,14.78,22.78,14.78,39.11-7.17c35.27-47.43,70.53-94.86,105.8-142.29c7.47-1.23,9.13,3.61,9.88,9.42
	c-8.07,24.65-19.6,47.93-28.09,71.1c31.81-35.75,29.49-34.08,50.78-19.04c3.08-22.54,18.28-9.68,29-10.08
	C609.71,396.75,613.1,395.23,616.6,394.1z"/>
<path class="st0" d="M941.33,1022.84c16.2,0.59,31.43,1.32,46.46-3.23c10.81-3.27,22-1.49,24.4,10.15
	c2.33,11.28-9.27,15.29-18.17,17.48c-16.13,3.96-32.76,5.12-49.39,4.97c-26.79-0.24-39.14-19.65-28.46-44.79
	c3.01-7.07,6.82-13.8,10.07-20.77c4.75-10.19,1.3-32.06-5.39-34.95c-11.47-4.96-38.35,4.01-42.9,14.39
	c-7.11,16.25-14.68,32.33-20.98,48.89c-3.11,8.16-9.7,17.2,0.42,25.84c3.69,3.15,2.91,7.74-0.41,11.05
	c-3.82,3.81-8.21,3.48-13.07,1.24c-12.15-5.61-18.36-24.16-12.4-42.33c5.49-16.72,12.49-32.94,19.14-50.21
	c-13.82-2.67-27.06,4.69-40.53-1.4c-5.25-2.37-4.61,6.62-5.63,10.75c-8.1,33.05-29.3,56.44-57.64,72.55
	c-29.8,16.94-51.7,4.75-56.16-29.42c-2.71-20.79,1.03-41.37,4.62-61.83c0.87-4.95,3.62-9.35,8.34-10.63
	c5.19-1.41,6.44,4.5,8.77,7.43c7.55,9.49,11.86,19.32,7.75,32.57c-3.02,9.74-6.05,24.48,2.47,30c9.91,6.42,21.06-3.88,29.9-10.48
	c15.43-11.51,23.54-27.78,27.26-46.45c1.5-7.51,3.19-14.98,5.09-22.4c1.01-3.95,4.18-6.94,7.71-3.8
	c21.17,18.79,43.43,2.02,65.02,1.96c20.23-0.05,40.45-3.77,60.7-5.45c3.27-0.27,8.38,0.55,9.84,2.73
	c10.1,15.16,23.08,9.56,36.39,6.59c13.26-2.97,26.81-4.76,40.3-6.52c9.28-1.21,17.44,3.89,18.99,11.85
	c1.43,7.36-6.61,11.71-13.95,13.57c-13.72,3.47-27.47,6.87-41.23,10.19c-4.49,1.08-10.88,0.84-9.85,7.39
	c1.05,6.65,7.66,3.99,11.79,3.92c10.51-0.16,20.02-1.46,29.06,7.92c6.92,7.18,3.96,8.87-1.32,13c-9.57,7.5-20.8,9.49-31.98,7.64
	C949.71,999.5,944.46,1008.5,941.33,1022.84z"/>
<path class="st0" d="M72.46,988.35c13.07-1.28,21.88-1.76,30.56-3.11c8.85-1.38,16.72,1.04,17.52,9.92
	c0.75,8.23-5.7,13.04-14.8,14.02c-9.95,1.08-19.7,4.74-29.64,5.19c-14.81,0.67-18.99,10.03-20.32,21.93
	c-0.87,7.78,0.44,17.05-11.35,15.21c-9.73-1.51-13.77-9.86-12.53-18.6c1.35-9.55,1.26-17.2-4.69-25.9
	c-7.16-10.46-1.41-19.25,11.96-19.98c4.86-0.27,8.98,1.64,10.45-5.36c1.21-5.8,2.62-9.16-3.59-14.59
	c-13.35-11.68-10.61-20.71,6.45-25.96c18.07-5.55,36.23-11,54.66-15.14c26.59-5.98,54.78,11.95,62.26,37.9
	c3.16,10.97-3.51,20.58-2.78,31.38c1.26,18.59,4.14,21.13,21.19,12.9c21.75-10.49,34.36-28.32,39.64-51.62
	c0.26-1.15,0.19-2.37,0.45-3.53c2.09-9.39,1.8-24.99,10.32-25.35c12.55-0.53,10.91,15.82,14.56,25.17
	c3.61,9.26,0.75,19.13-2.79,27.6c-11.21,26.84-29.31,48.56-55.03,62.34c-30.88,16.55-54.42,2.23-56.42-33.29
	c-0.94-16.56-0.67-33.15,3.64-49.33c2.46-9.24,0.06-12.92-10.07-12.11c-13.65,1.1-26.96,3.54-40.09,7.18
	C76.11,959.67,80.87,975.44,72.46,988.35z"/>
<path class="st0" d="M293.69,1012.7c-7.5,10.02-12.28,18.67-14.53,28.64c-1.15,5.11-4.84,8.38-9.66,9.43
	c-5.84,1.28-8.25-3.73-10.63-7.68c-7.31-12.13-10.62-24.05-3.02-38.12c10.68-19.77,18.88-40.89,29.8-60.52
	c3.25-5.85,0.75-21.59,15.38-15.43c12.62,5.31,23.39,14.3,17.55,30.22c-4.66,12.69-5.29,25.37-4.85,38.4
	c0.11,3.32-1.47,7.79,2.48,9.6c5.04,2.31,7.34-2.63,9.84-5.5c10.66-12.26,12.72-27.79,15.19-42.96c1.06-6.49,1.09-13.4,5.2-18.56
	c3.53-4.43-0.55-16.88,9.32-13.15c8.43,3.19,22.7,9.94,18.46,20.48c-9.62,23.88-7.01,50.53-19.03,73.36
	c-3.01,5.71-6.85,11.15-11.14,15.98c-12.75,14.34-19.95,14.12-33.76,0.39C303.46,1030.51,299.07,1022.12,293.69,1012.7z"/>
<path class="st3" d="M551.99,356.9c-0.01-5.45-2.64-9.14-7.58-11.27c3.12-6.17,6.38-2.68,9.64-0.14
	c20.85,16.21,41.7,32.41,62.55,48.62c-1.34,4.06-3.37,7.49-7.88,8.65c-14.5-10.97-30.35-20.05-44.54-31.47
	C559.19,367.26,553.33,363.99,551.99,356.9z"/>
<path class="st4" d="M797.18,299.82c2.48-0.96,4.96-1.93,7.44-2.89c11.29,10.07,21.17,21.27,28.26,34.75
	c-5.8-0.62-11.31,7.72-17.33,0.57C812.42,319.75,797.29,314.04,797.18,299.82z"/>
<path class="st4" d="M376.35,485.37c1.46-1.16,2.91-2.32,4.37-3.47c7.89,2.08,13.47,7.44,18.79,13.19c-1.44,1.3-2.88,2.6-4.31,3.9
	C384.12,501.08,378.12,496.14,376.35,485.37z"/>
<path class="st5" d="M376.35,485.37c5.08,6.2,11.55,10.48,18.84,13.61c-0.9,2.71,12.01,7.09-0.55,7.95
	c-6.84,0.47-13.89-2.28-22.87-3.95c1.36,5.91,2.53,11.02,3.68,16c-2.09,0.59-3.55,1.51-4.19,1.11
	c-24.66-15.42-24.64-15.43-43.11,6.53c-6.28,7.47-12.63,14.88-22.21,20.27c10.6-26.09,21.28-52.16,31.76-78.3
	c3.06-7.63,7.14-3.49,10.95-1.28C358.2,472.83,365.36,482.04,376.35,485.37z"/>
<path class="st5" d="M551.99,356.9c15.98,11.54,32.05,22.96,47.88,34.71c3.8,2.82,10.46,3.85,8.85,11.14
	c-8.59-1.63-17.18-3.26-27.41-5.2c1.23,6.2,2.17,10.94,3.08,15.55c-4.04,2.7-6.36,0.15-8.13-1.65
	c-13.96-14.23-24.71-11.85-35.03,4.81c-6.06,9.79-14.76,17.95-24.19,25.68C528.6,413.3,535.19,383.02,551.99,356.9z"/>
<path class="st5" d="M797.18,299.82c7.19,8.57,14.2,17.3,21.62,25.66c4.86,5.48,2.09,6.55-3.24,6.76
	c-18.82-11.33-34.59-8.64-49.56,8.12c-9.57,10.71-21.93,18.92-36.1,25.78c15.31-26.16,30.65-52.29,45.9-78.48
	c3.03-5.19,5.97-4.67,9.54-0.6C789.17,291.42,793.23,295.58,797.18,299.82z"/>
<path class="st0" d="M535.31,1029.3c-15.05-2.16-31.47-3.72-42.66-18.62c11.12-4.32,21.11-7.82,30.78-12.07
	c9.02-3.97,16.17-10.13,17.53-20.7c2.03-15.72-19-48.05-33.81-53.15c-5.58-1.92-10.13,0.57-12.86,3.55
	c-20.94,22.86-50.21,40.6-48.85,77.65c0.19,5.19-1.77,10.45-2.7,15.68c-2.06,11.53-2.96,25.21,9.57,28.97
	c13.5,4.05,12.73-11.95,18.39-21.57c17.65,15.66,37.99,21.99,58.61,27.57c9.25,2.5,18.76,2.78,21.26-9.04
	C552.98,1036.17,547.58,1031.06,535.31,1029.3z M503.09,959.66c4.32-0.83,10.68,7.13,8.89,11.16
	c-5.52,12.42-18.49,10.42-31.49,14.97C486.13,972.02,491.35,961.93,503.09,959.66z"/>
<path class="st0" d="M667.13,980.7c-5.65-12.22-15.6-22.9-12.3-39.16c1.94-9.58-17.47-21.44-24.73-16.28
	c-25.89,18.43-52.19,36.85-67.6,65.87c-18.28,34.42-3.64,59.6,34.9,61.32c15.54,0.39,30.36-2.82,44.82-8.48
	C679.35,1029.44,683.88,1016.96,667.13,980.7z M642.77,1011.45c-13.39,7.86-27.86,12.3-45.59,11.9c-3.65-0.41-10.71,2.24-14.46-3.33
	c-4.48-6.66,1.78-11.97,4.74-17.38c4.27-7.8,10.08-14.4,16.69-20.36c23.4-21.09,39.22-15.92,46.13,14.92
	C651.92,1004.56,647.92,1008.43,642.77,1011.45z"/>
<g>
	<path d="M471.48,836.26l-10.69-3.56c27.52-14.27,121.65-65.39,121.16-131.85c-0.3-40.89-34.04-77.99-101.76-111.85l0.4-0.79
		c68.04,34.02,108.18,71.39,108.49,112.65c0.18,25.01-14.5,53.04-39.2,78.4C524.34,805.46,494.02,824.57,471.48,836.26z"/>
</g>
<g>
	<path d="M670.52,801.64c-2.51,0-4.73-0.45-6.69-1.2c-16.58,24.02-44.59,45.06-83.85,62.14l5.52,5.75
		c35.43-15.4,63.88-38.5,81.96-60.58c1.68-2.05,3.21-4.11,4.66-6.19C671.6,801.61,671.07,801.64,670.52,801.64z"/>
	<path d="M537.84,590.38c0.11,0,0.21,0.01,0.33,0.02c-8.33-3.26-16.85-6.39-25.57-9.35l-0.29,0.84c8.01,2.72,15.78,5.6,23.35,8.6
		C536.37,590.43,537.09,590.38,537.84,590.38z"/>
	<path d="M550.05,595.21c0.61,0.62,1.18,1.28,1.68,1.99c12.65,5.59,24.58,11.58,35.7,17.92c0.69-0.07,1.41-0.11,2.15-0.11
		c0.7,0,1.38,0.04,2.04,0.1C578.74,608.01,564.78,601.38,550.05,595.21z"/>
	<path d="M642.52,650.96c-10.94-10.29-24.09-19.95-38.94-28.95c0.91,1.33,1.63,2.79,2.15,4.33c12.5,8.27,23.71,17.02,33.45,26.18
		c1.15,1.08,2.23,2.18,3.33,3.28c0.84-0.79,1.79-1.49,2.82-2.09C644.4,652.8,643.49,651.87,642.52,650.96z"/>
	<path d="M688.85,740.05c-0.81-19.49-8.11-39.98-21.04-59.38c-0.89,1.2-1.94,2.28-3.17,3.2c10.95,18.36,16.31,37.56,17.08,56.18
		c0.4,9.57-0.57,18.88-2.88,27.9c2.79,1.46,4.93,3.63,6.4,6.21C688.36,763.15,689.33,751.79,688.85,740.05z"/>
</g>
<g>
	<path d="M743.68,699.27C717.06,646.02,639.53,600.6,535,577l2.5,0.48c53.54,12.09,104.25,30.17,140.66,52.11
		c34.06,20.52,55.04,42.36,67.71,67.71L743.68,699.27z"/>
</g>
<path class="st6" d="M495.11,189.6c-7.8-1.2-14.73,1.31-21.22,5.32c-8.87,5.49-17.81,10.88-26.45,16.72
	c-3.99,2.7-7.35,3.27-12.06,1.58c-17.17-6.18-34.53-11.8-51.83-17.61c-10.43-3.51-20.87-6.99-31.31-10.49
	c-1.05-0.35-1.99-0.6-3.07,0.1c-4.32,2.79-8.71,5.47-13.04,8.24c-1.65,1.06-1.64,1.93-0.06,3.16c2.35,1.81,4.72,3.58,7.09,5.36
	c8.5,6.38,17,12.76,25.5,19.13c0.26,0.21,0.52,0.43,0.78,0.64c0.02,0.1,27.91,20.16,28.18,21.11c-0.23,0.22-2.82,1.72-3.05,1.94
	c-8.17,5.1-16.35,10.19-24.5,15.32c-1.04,0.65-1.88,0.88-3.17,0.43c-7.87-2.73-15.8-5.26-23.68-7.95c-1.47-0.5-2.58-0.28-3.83,0.55
	c-2.77,1.85-5.63,3.57-8.45,5.34c-2.8,1.76-2.85,2.33-0.26,4.31c8.84,6.77,17.68,13.55,26.56,20.27c1,0.76,1.49,1.59,1.74,2.81
	c2.23,11.06,4.53,22.11,6.82,33.15c0.52,2.49,1.24,2.8,3.39,1.47c3.14-1.95,6.23-3.97,9.4-5.87c1.13-0.67,1.55-1.52,1.7-2.78
	c1.03-8.34,2.16-16.66,3.17-25c0.15-1.23,0.63-1.91,1.63-2.53c7.38-4.59,14.74-9.22,22.09-13.86c1.74-1.09,3.45-2.23,5.35-3.46
	c0.23,1.08,0.39,1.79,0.53,2.49c4.81,24.11,9.62,48.23,14.44,72.34c0.56,2.81,1.2,3.09,3.6,1.59c4.06-2.53,8.08-5.11,12.16-7.61
	c1.08-0.66,1.6-1.44,1.75-2.74c0.91-7.77,1.95-15.52,2.92-23.28c1.72-13.72,3.44-27.44,5.15-41.17c0.89-7.15,1.97-14.29,2.5-21.48v0
	c0.11-0.57,0.23-1.13,0.34-1.7c0.24-0.9,0.53-1.8,0.32-2.76c0,0,0,0,0,0c-0.04-2.71,1.56-4.12,3.74-5.46
	c9.94-6.1,19.82-12.3,29.64-18.59c6.18-3.96,11.09-9.06,13.38-16.25C505.16,195.67,502.1,190.67,495.11,189.6z"/>
</svg>
