<?xml version="1.0" encoding="UTF-8"?>
<!DOCTYPE svg PUBLIC "-//W3C//DTD SVG 1.1//EN" "http://www.w3.org/Graphics/SVG/1.1/DTD/svg11.dtd">
<svg xmlns="http://www.w3.org/2000/svg" version="1.1" width="692px" height="361px" style="shape-rendering:geometricPrecision; text-rendering:geometricPrecision; image-rendering:optimizeQuality; fill-rule:evenodd; clip-rule:evenodd" xmlns:xlink="http://www.w3.org/1999/xlink">
<g><path style="opacity:0.999" fill="#1c1c1c" d="M 303.5,101.5 C 303.427,103.027 304.094,104.027 305.5,104.5C 312.657,114.821 317.657,126.154 320.5,138.5C 320.41,141.152 321.076,143.485 322.5,145.5C 335.289,209.633 315.622,261.466 263.5,301C 257.234,306.482 252.568,305.482 249.5,298C 251.862,293.149 255.529,289.649 260.5,287.5C 262.027,287.573 263.027,286.906 263.5,285.5C 265.749,284.92 267.415,283.587 268.5,281.5C 272.5,276.833 276.833,272.5 281.5,268.5C 283.262,267.738 284.262,266.404 284.5,264.5C 288.532,258.81 292.532,253.143 296.5,247.5C 297.906,247.027 298.573,246.027 298.5,244.5C 301.493,237.863 304.493,231.196 307.5,224.5C 309.213,223.365 309.88,221.698 309.5,219.5C 321.463,167.683 309.796,122.017 274.5,82.5C 273.738,80.7376 272.404,79.7376 270.5,79.5C 266.183,76.5136 262.183,73.1803 258.5,69.5C 258.027,68.0937 257.027,67.427 255.5,67.5C 255.027,66.0937 254.027,65.427 252.5,65.5C 212.608,43.9106 171.275,40.744 128.5,56C 76.2639,80.943 48.9306,122.443 46.5,180.5C 46.6313,202.69 51.6313,223.69 61.5,243.5C 61.427,245.027 62.0937,246.027 63.5,246.5C 64.8897,247.899 65.8897,249.566 66.5,251.5C 66.427,253.027 67.0937,254.027 68.5,254.5C 68.427,256.027 69.0937,257.027 70.5,257.5C 72.6326,259.091 74.2993,261.091 75.5,263.5C 75.427,265.027 76.0937,266.027 77.5,266.5C 105.889,298.153 141.555,314.32 184.5,315C 187.55,319.415 186.883,323.082 182.5,326C 166.781,326.547 151.448,324.38 136.5,319.5C 135.365,317.787 133.698,317.12 131.5,317.5C 120.994,314.345 111.327,309.678 102.5,303.5C 102.027,302.094 101.027,301.427 99.5,301.5C 99.0269,300.094 98.0269,299.427 96.5,299.5C 94.5956,299.262 93.2623,298.262 92.5,296.5C 92.0269,295.094 91.0269,294.427 89.5,294.5C 87.6593,293.598 86.326,292.264 85.5,290.5C 84.7377,288.738 83.4044,287.738 81.5,287.5C 47.2667,255.339 31.6001,215.672 34.5,168.5C 35.4731,166.052 35.8064,163.385 35.5,160.5C 35.4013,157.763 35.7347,155.096 36.5,152.5C 37.1098,151.609 37.4431,150.609 37.5,149.5C 40.8217,132.536 47.1551,116.869 56.5,102.5C 57.9063,102.027 58.573,101.027 58.5,99.5C 59.9063,99.0269 60.573,98.0269 60.5,96.5C 61.0256,94.7697 62.0256,93.4363 63.5,92.5C 64.9063,92.0269 65.573,91.0269 65.5,89.5C 65.8333,88.5 66.5,87.8333 67.5,87.5C 68.9063,87.0269 69.573,86.0269 69.5,84.5C 71.8333,81.5 74.5,78.8333 77.5,76.5C 80.7642,74.9059 83.4309,72.5725 85.5,69.5C 91.0161,63.0638 97.6827,58.0638 105.5,54.5C 107.027,54.573 108.027,53.9063 108.5,52.5C 153.31,28.6374 199.31,27.4707 246.5,49C 270.48,61.1491 289.48,78.6491 303.5,101.5 Z"/></g>
<g><path style="opacity:0.757" fill="#868686" d="M 108.5,52.5 C 108.027,53.9063 107.027,54.573 105.5,54.5C 105.973,53.0937 106.973,52.427 108.5,52.5 Z"/></g>
<g><path style="opacity:0.435" fill="#959595" d="M 252.5,65.5 C 254.027,65.427 255.027,66.0937 255.5,67.5C 253.973,67.573 252.973,66.9063 252.5,65.5 Z"/></g>
<g><path style="opacity:0.4" fill="#a1a1a1" d="M 255.5,67.5 C 257.027,67.427 258.027,68.0937 258.5,69.5C 256.973,69.573 255.973,68.9063 255.5,67.5 Z"/></g>
<g><path style="opacity:0.843" fill="#636363" d="M 85.5,69.5 C 83.4309,72.5725 80.7642,74.9059 77.5,76.5C 79.5691,73.4275 82.2358,71.0941 85.5,69.5 Z"/></g>
<g><path style="opacity:0.686" fill="#a0a0a0" d="M 270.5,79.5 C 272.404,79.7376 273.738,80.7376 274.5,82.5C 272.596,82.2624 271.262,81.2624 270.5,79.5 Z"/></g>
<g><path style="opacity:0.004" fill="#fdfefd" d="M 417.5,80.5 C 418.251,79.4265 419.251,79.2599 420.5,80C 419.552,80.4828 418.552,80.6495 417.5,80.5 Z"/></g>
<g><path style="opacity:0.282" fill="#c6c6c6" d="M 425.5,82.5 C 423.901,82.7678 422.568,82.4345 421.5,81.5C 422.822,81.67 423.989,81.3366 425,80.5C 425.464,81.0944 425.631,81.7611 425.5,82.5 Z"/></g>
<g><path style="opacity:0.004" fill="#fdfefd" d="M 428.5,81.5 C 429.833,82.1667 429.833,82.1667 428.5,81.5 Z"/></g>
<g><path style="opacity:0.999" fill="#121212" d="M 421.5,81.5 C 422.568,82.4345 423.901,82.7678 425.5,82.5C 426.5,82.5 427.5,82.5 428.5,82.5C 429.671,83.3446 431.005,84.0113 432.5,84.5C 432.842,85.3382 433.508,85.6716 434.5,85.5C 434.842,86.3382 435.508,86.6716 436.5,86.5C 436.842,87.3382 437.508,87.6716 438.5,87.5C 439.721,88.0283 440.887,88.695 442,89.5C 445.91,91.3217 449.41,94.3217 452.5,98.5C 452.427,100.027 453.094,101.027 454.5,101.5C 456.262,102.262 457.262,103.596 457.5,105.5C 457.427,107.027 458.094,108.027 459.5,108.5C 461.794,111.37 463.128,114.703 463.5,118.5C 463.608,123.87 463.275,129.203 462.5,134.5C 461.543,141.477 461.377,148.477 462,155.5C 462.311,161.824 465.477,164.324 471.5,163C 476.521,160.821 481.521,158.654 486.5,156.5C 488.027,156.573 489.027,155.906 489.5,154.5C 489.973,153.094 490.973,152.427 492.5,152.5C 495.089,151.581 497.089,149.914 498.5,147.5C 498.833,146.5 499.5,145.833 500.5,145.5C 501.906,145.027 502.573,144.027 502.5,142.5C 507.622,135.253 511.956,127.586 515.5,119.5C 516.924,117.485 517.59,115.152 517.5,112.5C 517.735,107.759 518.402,103.092 519.5,98.5C 520.434,97.4324 520.768,96.099 520.5,94.5C 521.232,84.7114 525.898,81.7114 534.5,85.5C 534.427,87.0269 535.094,88.0269 536.5,88.5C 538.96,93.4412 540.293,98.7745 540.5,104.5C 540.477,106.927 539.977,109.26 539,111.5C 533.35,123.469 527.683,135.469 522,147.5C 519.281,154.594 517.781,161.927 517.5,169.5C 514.833,172.833 511.833,175.833 508.5,178.5C 506.973,178.427 505.973,179.094 505.5,180.5C 492.764,193.032 477.43,199.199 459.5,199C 456.135,198.495 453.135,197.328 450.5,195.5C 450.027,194.094 449.027,193.427 447.5,193.5C 439.607,186.717 435.107,178.051 434,167.5C 432.513,148.145 433.679,128.978 437.5,110C 437.238,105.435 434.738,103.268 430,103.5C 414.728,104.754 399.895,107.921 385.5,113C 383.083,114.663 381.25,116.829 380,119.5C 378.443,126.404 376.277,133.07 373.5,139.5C 372.957,139.56 372.624,139.893 372.5,140.5C 374.973,141.797 377.307,141.797 379.5,140.5C 387.771,139.425 396.105,138.425 404.5,137.5C 414.811,137.982 418.978,143.315 417,153.5C 414.688,157.58 411.188,160.08 406.5,161C 394.556,163.319 382.556,165.319 370.5,167C 364.841,168.47 361.008,171.97 359,177.5C 357.274,184.093 355.941,190.76 355,197.5C 354.578,199.426 353.411,200.426 351.5,200.5C 349.076,200.808 346.743,200.474 344.5,199.5C 346.469,179.687 345.469,160.02 341.5,140.5C 343.735,140.795 345.735,140.461 347.5,139.5C 351.432,133.471 351.432,127.471 347.5,121.5C 347.027,120.094 346.027,119.427 344.5,119.5C 343.094,119.027 342.427,118.027 342.5,116.5C 342.167,115.5 341.5,114.833 340.5,114.5C 339.833,113.833 339.167,113.167 338.5,112.5C 338.198,109.941 338.532,107.607 339.5,105.5C 340.906,105.027 341.573,104.027 341.5,102.5C 341.973,101.094 342.973,100.427 344.5,100.5C 346.027,100.573 347.027,99.9063 347.5,98.5C 349.214,97.2616 351.214,96.595 353.5,96.5C 356.152,96.5905 358.485,95.9238 360.5,94.5C 361.209,93.596 362.209,93.2627 363.5,93.5C 367.162,93.2766 370.495,92.2766 373.5,90.5C 376.152,90.5905 378.485,89.9238 380.5,88.5C 381.568,87.5655 382.901,87.2322 384.5,87.5C 387.152,87.5905 389.485,86.9238 391.5,85.5C 392.568,84.5655 393.901,84.2322 395.5,84.5C 398.152,84.5905 400.485,83.9238 402.5,82.5C 408.744,81.5422 415.077,81.2088 421.5,81.5 Z"/></g>
<g><path style="opacity:0.812" fill="#878787" d="M 402.5,82.5 C 400.485,83.9238 398.152,84.5905 395.5,84.5C 397.438,82.8372 399.772,82.1706 402.5,82.5 Z"/></g>
<g><path style="opacity:0.01" fill="#e9e9e9" d="M 434.5,85.5 C 433.508,85.6716 432.842,85.3382 432.5,84.5C 433.925,82.9689 434.591,83.3023 434.5,85.5 Z"/></g>
<g><path style="opacity:1" fill="#111111" d="M 653.5,91.5 C 653.427,93.0269 654.094,94.0269 655.5,94.5C 656.809,95.624 657.475,97.124 657.5,99C 655.668,105.164 653.834,111.331 652,117.5C 650.032,130.316 647.532,142.982 644.5,155.5C 643.076,157.515 642.41,159.848 642.5,162.5C 638.646,175.025 631.646,185.525 621.5,194C 616.353,197.86 611.019,198.36 605.5,195.5C 605.027,194.094 604.027,193.427 602.5,193.5C 601.167,192.833 600.167,191.833 599.5,190.5C 598.738,188.738 597.404,187.738 595.5,187.5C 593.367,185.909 591.701,183.909 590.5,181.5C 590.446,179.368 589.446,178.035 587.5,177.5C 587.715,175.821 587.048,174.821 585.5,174.5C 583.678,171.528 581.844,168.528 580,165.5C 573.1,174.841 568.1,185.174 565,196.5C 561.32,200.228 557.153,201.228 552.5,199.5C 552.167,198.5 551.5,197.833 550.5,197.5C 542.588,189.013 539.255,179.013 540.5,167.5C 541.924,165.485 542.59,163.152 542.5,160.5C 552.225,140.183 562.058,119.85 572,99.5C 572.993,96.5259 573.826,93.5259 574.5,90.5C 575.674,89.4863 576.34,88.153 576.5,86.5C 577.512,84.124 579.345,83.124 582,83.5C 586.735,83.9575 590.901,85.6242 594.5,88.5C 595.035,90.4456 596.368,91.4456 598.5,91.5C 599.5,91.8333 600.167,92.5 600.5,93.5C 600.738,95.4044 601.738,96.7377 603.5,97.5C 604.991,100.186 605.657,103.186 605.5,106.5C 603.37,115.403 601.537,124.403 600,133.5C 599.333,141.167 599.333,148.833 600,156.5C 602.295,159.723 604.795,160.056 607.5,157.5C 608.906,157.027 609.573,156.027 609.5,154.5C 614.017,148.806 617.517,142.472 620,135.5C 622.317,124.896 624.317,114.229 626,103.5C 629.247,97.1938 631.58,90.5271 633,83.5C 635.064,82.4086 637.231,82.2419 639.5,83C 644.73,85.1057 649.397,87.939 653.5,91.5 Z"/></g>
<g><path style="opacity:0.659" fill="#9d9d9d" d="M 69.5,84.5 C 69.573,86.0269 68.9063,87.0269 67.5,87.5C 67.427,85.9731 68.0937,84.9731 69.5,84.5 Z"/></g>
<g><path style="opacity:0.039" fill="#dedede" d="M 436.5,86.5 C 435.508,86.6716 434.842,86.3382 434.5,85.5C 435.925,83.9689 436.591,84.3023 436.5,86.5 Z"/></g>
<g><path style="opacity:0.929" fill="#606060" d="M 391.5,85.5 C 389.485,86.9238 387.152,87.5905 384.5,87.5C 386.515,86.0762 388.848,85.4095 391.5,85.5 Z"/></g>
<g><path style="opacity:0.031" fill="#dedede" d="M 438.5,87.5 C 437.508,87.6716 436.842,87.3382 436.5,86.5C 437.925,84.9689 438.591,85.3023 438.5,87.5 Z"/></g>
<g><path style="opacity:0.486" fill="#8f8f8f" d="M 534.5,85.5 C 535.906,85.9731 536.573,86.9731 536.5,88.5C 535.094,88.0269 534.427,87.0269 534.5,85.5 Z"/></g>
<g><path style="opacity:0.035" fill="#cecece" d="M 576.5,86.5 C 576.34,88.153 575.674,89.4863 574.5,90.5C 574.229,88.6203 574.896,87.287 576.5,86.5 Z"/></g>
<g><path style="opacity:0.902" fill="#676767" d="M 380.5,88.5 C 378.485,89.9238 376.152,90.5905 373.5,90.5C 375.515,89.0762 377.848,88.4095 380.5,88.5 Z"/></g>
<g><path style="opacity:0.949" fill="#838383" d="M 594.5,88.5 C 596.23,89.0256 597.564,90.0256 598.5,91.5C 596.368,91.4456 595.035,90.4456 594.5,88.5 Z"/></g>
<g><path style="opacity:0.447" fill="#a1a1a1" d="M 65.5,89.5 C 65.573,91.0269 64.9063,92.0269 63.5,92.5C 63.427,90.9731 64.0937,89.9731 65.5,89.5 Z"/></g>
<g><path style="opacity:0.993" fill="#293237" d="M 143.5,123.5 C 141.656,125.279 140.99,127.612 141.5,130.5C 141.707,133.745 140.207,135.745 137,136.5C 135.295,132.336 133.962,128.003 133,123.5C 130.809,122.167 128.976,120.5 127.5,118.5C 125.599,117.065 125.266,115.398 126.5,113.5C 126.917,112.876 127.584,112.543 128.5,112.5C 131.167,113.167 133.833,113.833 136.5,114.5C 139.774,113.53 142.774,112.03 145.5,110C 138.663,104.659 131.996,99.1589 125.5,93.5C 128.039,90.9597 131.039,90.1263 134.5,91C 143.136,93.9341 151.802,96.7674 160.5,99.5C 165.289,97.2716 169.955,94.7716 174.5,92C 181.426,90.586 183.593,93.086 181,99.5C 176.509,103.079 171.843,106.412 167,109.5C 165.503,119.477 164.17,129.477 163,139.5C 161.352,142.553 159.018,143.553 156,142.5C 154.97,134.347 153.303,126.347 151,118.5C 148.618,120.389 146.118,122.055 143.5,123.5 Z"/></g>
<g><path style="opacity:0.886" fill="#656565" d="M 373.5,90.5 C 370.495,92.2766 367.162,93.2766 363.5,93.5C 366.505,91.7234 369.838,90.7234 373.5,90.5 Z"/></g>
<g><path style="opacity:0.494" fill="#989898" d="M 653.5,91.5 C 654.906,91.9731 655.573,92.9731 655.5,94.5C 654.094,94.0269 653.427,93.0269 653.5,91.5 Z"/></g>
<g><path style="opacity:0.824" fill="#8e8e8e" d="M 600.5,93.5 C 602.262,94.2623 603.262,95.5956 603.5,97.5C 601.738,96.7377 600.738,95.4044 600.5,93.5 Z"/></g>
<g><path style="opacity:0.855" fill="#727272" d="M 360.5,94.5 C 358.485,95.9238 356.152,96.5905 353.5,96.5C 355.515,95.0762 357.848,94.4095 360.5,94.5 Z"/></g>
<g><path style="opacity:0.592" fill="#a5a5a5" d="M 520.5,94.5 C 520.768,96.099 520.434,97.4324 519.5,98.5C 519.062,98.5654 518.728,98.3988 518.5,98C 519.085,96.6976 519.751,95.531 520.5,94.5 Z"/></g>
<g><path style="opacity:0.443" fill="#9a9a9a" d="M 60.5,96.5 C 60.573,98.0269 59.9063,99.0269 58.5,99.5C 58.427,97.9731 59.0937,96.9731 60.5,96.5 Z"/></g>
<g><path style="opacity:0.808" fill="#7e7e7e" d="M 347.5,98.5 C 347.027,99.9063 346.027,100.573 344.5,100.5C 344.973,99.0937 345.973,98.427 347.5,98.5 Z"/></g>
<g><path style="opacity:0.741" fill="#8c8c8c" d="M 452.5,98.5 C 453.906,98.9731 454.573,99.9731 454.5,101.5C 453.094,101.027 452.427,100.027 452.5,98.5 Z"/></g>
<g><path style="opacity:0.404" fill="#9e9e9e" d="M 58.5,99.5 C 58.573,101.027 57.9063,102.027 56.5,102.5C 56.427,100.973 57.0937,99.9731 58.5,99.5 Z"/></g>
<g><path style="opacity:0.475" fill="#8e8e8e" d="M 303.5,101.5 C 304.906,101.973 305.573,102.973 305.5,104.5C 304.094,104.027 303.427,103.027 303.5,101.5 Z"/></g>
<g><path style="opacity:0.514" fill="#8c8c8c" d="M 341.5,102.5 C 341.573,104.027 340.906,105.027 339.5,105.5C 339.427,103.973 340.094,102.973 341.5,102.5 Z"/></g>
<g><path style="opacity:0.376" fill="#9f9f9f" d="M 457.5,105.5 C 458.906,105.973 459.573,106.973 459.5,108.5C 458.094,108.027 457.427,107.027 457.5,105.5 Z"/></g>
<g><path style="opacity:0.999" fill="#181818" d="M 540.5,104.5 C 541.738,106.214 542.405,108.214 542.5,110.5C 542.5,114.833 542.5,119.167 542.5,123.5C 537.212,132.681 532.879,142.348 529.5,152.5C 526.27,158.727 522.27,164.393 517.5,169.5C 517.781,161.927 519.281,154.594 522,147.5C 527.683,135.469 533.35,123.469 539,111.5C 539.977,109.26 540.477,106.927 540.5,104.5 Z"/></g>
<g><path style="opacity:0.004" fill="#fdfefd" d="M 338.5,112.5 C 337.833,113.167 337.833,113.167 338.5,112.5 Z"/></g>
<g><path style="opacity:0.79" fill="#878b8f" d="M 126.5,113.5 C 125.266,115.398 125.599,117.065 127.5,118.5C 125.616,118.288 124.283,117.288 123.5,115.5C 124.005,114.081 125.005,113.415 126.5,113.5 Z"/></g>
<g><path style="opacity:0.004" fill="#d9d9d9" d="M 340.5,114.5 C 341.5,114.833 342.167,115.5 342.5,116.5C 341.167,116.5 340.5,115.833 340.5,114.5 Z"/></g>
<g><path style="opacity:0.894" fill="#707070" d="M 517.5,112.5 C 517.59,115.152 516.924,117.485 515.5,119.5C 515.41,116.848 516.076,114.515 517.5,112.5 Z"/></g>
<g><path style="opacity:0.616" fill="#a3a3a3" d="M 542.5,110.5 C 545.167,114.833 545.167,119.167 542.5,123.5C 542.5,119.167 542.5,114.833 542.5,110.5 Z"/></g>
<g><path style="opacity:0.995" fill="#282828" d="M 271.5,116.5 C 274.5,117.5 276.5,119.5 277.5,122.5C 277.427,124.027 278.094,125.027 279.5,125.5C 280.116,126.798 280.116,127.798 279.5,128.5C 277.704,127.207 276.037,125.707 274.5,124C 273.365,123.251 272.365,123.417 271.5,124.5C 266.833,132.5 262.167,140.5 257.5,148.5C 257.833,148.833 258.167,149.167 258.5,149.5C 263.927,146.241 268.927,142.408 273.5,138C 277.984,137.269 282.318,137.769 286.5,139.5C 287.873,139.343 289.207,139.51 290.5,140C 291.705,141.376 293.038,142.542 294.5,143.5C 296.833,145.167 298.833,147.167 300.5,149.5C 300.414,150.496 300.748,151.329 301.5,152C 298.854,152.497 296.187,152.664 293.5,152.5C 289.958,152.62 286.458,152.286 283,151.5C 281.373,151.625 279.873,152.125 278.5,153C 263.167,167 247.833,181 232.5,195C 228.654,197.261 225.32,196.761 222.5,193.5C 222.027,192.094 221.027,191.427 219.5,191.5C 219.027,190.094 218.027,189.427 216.5,189.5C 215.508,189.672 214.842,189.338 214.5,188.5C 214.027,187.094 213.027,186.427 211.5,186.5C 208.726,185.277 206.059,183.777 203.5,182C 202.167,181.333 200.833,181.333 199.5,182C 186.972,197.374 173.972,212.374 160.5,227C 151.054,224.788 142.054,221.122 133.5,216C 131.5,215.333 129.5,215.333 127.5,216C 112.472,225.844 97.4715,235.677 82.5,245.5C 81.209,245.737 80.209,245.404 79.5,244.5C 79.5,243.833 79.8333,243.5 80.5,243.5C 81.9063,243.027 82.573,242.027 82.5,240.5C 90.8512,226.459 100.185,213.125 110.5,200.5C 111.906,200.027 112.573,199.027 112.5,197.5C 115.676,191.811 119.342,186.477 123.5,181.5C 125.142,179.919 127.142,179.253 129.5,179.5C 131.749,180.08 133.415,181.413 134.5,183.5C 134.5,184.5 134.5,185.5 134.5,186.5C 132.79,184.8 130.79,183.467 128.5,182.5C 127.914,182.709 127.414,183.043 127,183.5C 123.369,192.064 120.369,200.73 118,209.5C 121.536,206.299 124.703,202.799 127.5,199C 131.578,197.339 135.245,198.172 138.5,201.5C 139.331,199.527 139.498,197.527 139,195.5C 141.737,196.61 144.571,196.777 147.5,196C 146.944,195.617 146.611,195.117 146.5,194.5C 146.842,193.662 147.508,193.328 148.5,193.5C 150.366,194.014 152.2,194.68 154,195.5C 155.944,194.561 157.611,193.227 159,191.5C 170.697,175.649 182.53,159.983 194.5,144.5C 196.879,143.433 197.879,144.433 197.5,147.5C 192.505,156.324 189.005,165.658 187,175.5C 190.857,171.611 194.357,167.444 197.5,163C 201.503,162.165 204.836,163.331 207.5,166.5C 208.452,164.955 208.785,163.288 208.5,161.5C 211.167,161.833 213.833,162.167 216.5,162.5C 217.82,161.058 219.486,160.392 221.5,160.5C 223.601,162.109 225.935,162.609 228.5,162C 230.37,159.96 232.37,158.127 234.5,156.5C 236.587,155.415 237.92,153.749 238.5,151.5C 241.5,147.833 244.833,144.5 248.5,141.5C 250.587,140.415 251.92,138.749 252.5,136.5C 256.378,131.411 260.711,126.745 265.5,122.5C 267.833,120.833 269.833,118.833 271.5,116.5 Z"/></g>
<g><path style="opacity:0.671" fill="#979797" d="M 344.5,119.5 C 346.027,119.427 347.027,120.094 347.5,121.5C 345.973,121.573 344.973,120.906 344.5,119.5 Z"/></g>
<g><path style="opacity:0.522" fill="#969696" d="M 271.5,116.5 C 269.833,118.833 267.833,120.833 265.5,122.5C 266.5,119.5 268.5,117.5 271.5,116.5 Z"/></g>
<g><path style="opacity:0.045" fill="#e7e7e7" d="M 279.5,128.5 C 282.255,131.917 284.588,135.583 286.5,139.5C 282.318,137.769 277.984,137.269 273.5,138C 268.927,142.408 263.927,146.241 258.5,149.5C 258.167,149.167 257.833,148.833 257.5,148.5C 262.167,140.5 266.833,132.5 271.5,124.5C 272.365,123.417 273.365,123.251 274.5,124C 276.037,125.707 277.704,127.207 279.5,128.5 Z"/></g>
<g><path style="opacity:0.588" fill="#999999" d="M 463.5,118.5 C 464.163,120.473 464.496,122.639 464.5,125C 464.672,128.477 464.006,131.644 462.5,134.5C 463.275,129.203 463.608,123.87 463.5,118.5 Z"/></g>
<g><path style="opacity:0.616" fill="#9fa3a5" d="M 143.5,123.5 C 142.935,125.952 142.268,128.285 141.5,130.5C 140.99,127.612 141.656,125.279 143.5,123.5 Z"/></g>
<g><path style="opacity:0.333" fill="#aaaaaa" d="M 277.5,122.5 C 278.906,122.973 279.573,123.973 279.5,125.5C 278.094,125.027 277.427,124.027 277.5,122.5 Z"/></g>
<g><path style="opacity:0.859" fill="#5d5d5d" d="M 279.5,125.5 C 285.928,130.383 290.928,136.383 294.5,143.5C 293.038,142.542 291.705,141.376 290.5,140C 289.207,139.51 287.873,139.343 286.5,139.5C 284.588,135.583 282.255,131.917 279.5,128.5C 280.116,127.798 280.116,126.798 279.5,125.5 Z"/></g>
<g><path style="opacity:0.979" fill="#585858" d="M 542.5,123.5 C 540.274,134.204 535.941,143.87 529.5,152.5C 532.879,142.348 537.212,132.681 542.5,123.5 Z"/></g>
<g><path style="opacity:0.62" fill="#979797" d="M 252.5,136.5 C 251.92,138.749 250.587,140.415 248.5,141.5C 249.08,139.251 250.413,137.585 252.5,136.5 Z"/></g>
<g><path style="opacity:0.004" fill="#fdfefd" d="M 323.5,140.5 C 322.833,139.167 322.833,139.167 323.5,140.5 Z"/></g>
<g><path style="opacity:0.004" fill="#fdfefd" d="M 323.5,140.5 C 324.833,141.167 324.833,141.167 323.5,140.5 Z"/></g>
<g><path style="opacity:1" fill="#202020" d="M 347.5,139.5 C 345.735,140.461 343.735,140.795 341.5,140.5C 345.469,160.02 346.469,179.687 344.5,199.5C 346.743,200.474 349.076,200.808 351.5,200.5C 349.034,201.634 346.367,201.801 343.5,201C 341.68,200.8 340.347,199.966 339.5,198.5C 338.005,196.669 337.338,194.502 337.5,192C 338.844,174.956 337.51,158.123 333.5,141.5C 334.263,140.732 335.263,140.232 336.5,140C 340.152,139.501 343.818,139.335 347.5,139.5 Z"/></g>
<g><path style="opacity:0.812" fill="#686868" d="M 373.5,139.5 C 375.265,140.461 377.265,140.795 379.5,140.5C 377.307,141.797 374.973,141.797 372.5,140.5C 372.624,139.893 372.957,139.56 373.5,139.5 Z"/></g>
<g><path style="opacity:0.999" fill="#404040" d="M 332.5,141.5 C 332.833,141.5 333.167,141.5 333.5,141.5C 337.51,158.123 338.844,174.956 337.5,192C 337.338,194.502 338.005,196.669 339.5,198.5C 337.973,198.573 336.973,197.906 336.5,196.5C 336.573,194.973 335.906,193.973 334.5,193.5C 333.607,191.097 332.94,188.597 332.5,186C 333.81,179.156 333.81,172.323 332.5,165.5C 332.801,161.753 332.134,158.253 330.5,155C 331.727,151.651 331.727,148.318 330.5,145C 330.978,143.697 331.645,142.531 332.5,141.5 Z"/></g>
<g><path style="opacity:0.911" fill="#565656" d="M 221.5,160.5 C 219.486,160.392 217.82,161.058 216.5,162.5C 216.489,160.983 215.823,159.816 214.5,159C 208.805,155.157 203.138,151.323 197.5,147.5C 197.879,144.433 196.879,143.433 194.5,144.5C 195.204,142.656 196.537,142.156 198.5,143C 206.351,148.697 214.018,154.53 221.5,160.5 Z"/></g>
<g><path style="opacity:0.706" fill="#777777" d="M 320.5,138.5 C 321.924,140.515 322.59,142.848 322.5,145.5C 321.076,143.485 320.41,141.152 320.5,138.5 Z"/></g>
<g><path style="opacity:0.451" fill="#a0a0a0" d="M 502.5,142.5 C 502.573,144.027 501.906,145.027 500.5,145.5C 500.427,143.973 501.094,142.973 502.5,142.5 Z"/></g>
<g><path style="opacity:0.045" fill="#e5e5e5" d="M 197.5,147.5 C 203.138,151.323 208.805,155.157 214.5,159C 215.823,159.816 216.489,160.983 216.5,162.5C 213.833,162.167 211.167,161.833 208.5,161.5C 208.785,163.288 208.452,164.955 207.5,166.5C 204.836,163.331 201.503,162.165 197.5,163C 194.357,167.444 190.857,171.611 187,175.5C 189.005,165.658 192.505,156.324 197.5,147.5 Z"/></g>
<g><path style="opacity:0.306" fill="#d5d5d5" d="M 37.5,149.5 C 37.4431,150.609 37.1098,151.609 36.5,152.5C 35.2848,151.221 35.6182,150.221 37.5,149.5 Z"/></g>
<g><path style="opacity:0.966" fill="#696969" d="M 332.5,141.5 C 331.645,142.531 330.978,143.697 330.5,145C 331.727,148.318 331.727,151.651 330.5,155C 332.134,158.253 332.801,161.753 332.5,165.5C 326.764,159.447 325.264,152.447 328,144.5C 329.129,142.859 330.629,141.859 332.5,141.5 Z"/></g>
<g><path style="opacity:0.914" fill="#656565" d="M 498.5,147.5 C 497.089,149.914 495.089,151.581 492.5,152.5C 493.911,150.086 495.911,148.419 498.5,147.5 Z"/></g>
<g><path style="opacity:0.62" fill="#8f8f8f" d="M 300.5,149.5 C 301.812,150.145 302.812,151.145 303.5,152.5C 300.02,153.806 296.687,153.806 293.5,152.5C 296.187,152.664 298.854,152.497 301.5,152C 300.748,151.329 300.414,150.496 300.5,149.5 Z"/></g>
<g><path style="opacity:0.627" fill="#979797" d="M 238.5,151.5 C 237.92,153.749 236.587,155.415 234.5,156.5C 235.08,154.251 236.413,152.585 238.5,151.5 Z"/></g>
<g><path style="opacity:0.769" fill="#7f7f7f" d="M 489.5,154.5 C 489.027,155.906 488.027,156.573 486.5,156.5C 486.973,155.094 487.973,154.427 489.5,154.5 Z"/></g>
<g><path style="opacity:0.678" fill="#9a9a9a" d="M 609.5,154.5 C 609.573,156.027 608.906,157.027 607.5,157.5C 607.427,155.973 608.094,154.973 609.5,154.5 Z"/></g>
<g><path style="opacity:0.004" fill="#cdcdcd" d="M 644.5,155.5 C 644.59,158.152 643.924,160.485 642.5,162.5C 642.41,159.848 643.076,157.515 644.5,155.5 Z"/></g>
<g><path style="opacity:0.631" fill="#7e7e7e" d="M 542.5,160.5 C 542.59,163.152 541.924,165.485 540.5,167.5C 540.41,164.848 541.076,162.515 542.5,160.5 Z"/></g>
<g><path style="opacity:0.753" fill="#7d7d7d" d="M 35.5,160.5 C 35.8064,163.385 35.4731,166.052 34.5,168.5C 34.7135,166.856 34.3802,165.356 33.5,164C 34.0848,162.698 34.7515,161.531 35.5,160.5 Z"/></g>
<g><path style="opacity:0.937" fill="#797979" d="M 585.5,174.5 C 587.048,174.821 587.715,175.821 587.5,177.5C 586.599,176.71 585.932,175.71 585.5,174.5 Z"/></g>
<g><path style="opacity:0.004" fill="#dedede" d="M 508.5,178.5 C 508.027,179.906 507.027,180.573 505.5,180.5C 505.973,179.094 506.973,178.427 508.5,178.5 Z"/></g>
<g><path style="opacity:0.675" fill="#868686" d="M 587.5,177.5 C 589.446,178.035 590.446,179.368 590.5,181.5C 589.026,180.564 588.026,179.23 587.5,177.5 Z"/></g>
<g><path style="opacity:0.612" fill="#868686" d="M 129.5,179.5 C 127.142,179.253 125.142,179.919 123.5,181.5C 123.414,180.504 123.748,179.671 124.5,179C 126.387,178.22 128.054,178.387 129.5,179.5 Z"/></g>
<g><path style="opacity:0.045" fill="#e7e7e7" d="M 134.5,186.5 C 138.772,188.774 142.772,191.441 146.5,194.5C 146.611,195.117 146.944,195.617 147.5,196C 144.571,196.777 141.737,196.61 139,195.5C 139.498,197.527 139.331,199.527 138.5,201.5C 135.245,198.172 131.578,197.339 127.5,199C 124.703,202.799 121.536,206.299 118,209.5C 120.369,200.73 123.369,192.064 127,183.5C 127.414,183.043 127.914,182.709 128.5,182.5C 130.79,183.467 132.79,184.8 134.5,186.5 Z"/></g>
<g><path style="opacity:0.337" fill="#aeaeae" d="M 211.5,186.5 C 213.027,186.427 214.027,187.094 214.5,188.5C 212.973,188.573 211.973,187.906 211.5,186.5 Z"/></g>
<g><path style="opacity:0.71" fill="#949494" d="M 595.5,187.5 C 597.404,187.738 598.738,188.738 599.5,190.5C 597.596,190.262 596.262,189.262 595.5,187.5 Z"/></g>
<g><path style="opacity:0.857" fill="#525252" d="M 134.5,183.5 C 139.557,186.355 144.223,189.688 148.5,193.5C 147.508,193.328 146.842,193.662 146.5,194.5C 142.772,191.441 138.772,188.774 134.5,186.5C 134.5,185.5 134.5,184.5 134.5,183.5 Z"/></g>
<g><path style="opacity:0.42" fill="#9e9e9e" d="M 216.5,189.5 C 218.027,189.427 219.027,190.094 219.5,191.5C 217.973,191.573 216.973,190.906 216.5,189.5 Z"/></g>
<g><path style="opacity:0.004" fill="#fdfefd" d="M 331.5,190.5 C 332.833,191.167 332.833,191.167 331.5,190.5 Z"/></g>
<g><path style="opacity:0.345" fill="#aeaeae" d="M 219.5,191.5 C 221.027,191.427 222.027,192.094 222.5,193.5C 220.973,193.573 219.973,192.906 219.5,191.5 Z"/></g>
<g><path style="opacity:0.004" fill="#dfdfdf" d="M 334.5,193.5 C 335.906,193.973 336.573,194.973 336.5,196.5C 335.094,196.027 334.427,195.027 334.5,193.5 Z"/></g>
<g><path style="opacity:0.396" fill="#a3a3a3" d="M 447.5,193.5 C 449.027,193.427 450.027,194.094 450.5,195.5C 448.973,195.573 447.973,194.906 447.5,193.5 Z"/></g>
<g><path style="opacity:0.314" fill="#b6b6b6" d="M 602.5,193.5 C 604.027,193.427 605.027,194.094 605.5,195.5C 603.973,195.573 602.973,194.906 602.5,193.5 Z"/></g>
<g><path style="opacity:0.004" fill="#c4c4c4" d="M 550.5,197.5 C 551.5,197.833 552.167,198.5 552.5,199.5C 551.167,199.5 550.5,198.833 550.5,197.5 Z"/></g>
<g><path style="opacity:0.463" fill="#9e9e9e" d="M 112.5,197.5 C 112.573,199.027 111.906,200.027 110.5,200.5C 110.427,198.973 111.094,197.973 112.5,197.5 Z"/></g>
<g><path style="opacity:0.998" fill="#1a1a1a" d="M 403.5,221.5 C 403.414,222.496 403.748,223.329 404.5,224C 402.81,227.983 400.143,230.816 396.5,232.5C 394.159,234.656 392.159,237.156 390.5,240C 392.134,240.494 393.801,240.66 395.5,240.5C 396.012,243.632 396.012,246.965 395.5,250.5C 394.167,251.167 394.167,251.833 395.5,252.5C 398.789,254.978 402.456,256.644 406.5,257.5C 410.826,259.766 413.493,263.433 414.5,268.5C 408.318,269.69 402.318,268.69 396.5,265.5C 396.027,264.094 395.027,263.427 393.5,263.5C 391.847,263.34 390.514,262.674 389.5,261.5C 388.625,259.194 387.292,258.527 385.5,259.5C 384.828,262.343 383.495,264.843 381.5,267C 379.044,267.238 377.044,266.404 375.5,264.5C 375.737,263.209 375.404,262.209 374.5,261.5C 374.465,253.308 375.632,245.308 378,237.5C 378.949,235.907 380.115,234.574 381.5,233.5C 382.906,233.027 383.573,232.027 383.5,230.5C 383.833,229.5 384.5,228.833 385.5,228.5C 389.771,225.899 393.437,222.566 396.5,218.5C 399.368,217.691 401.702,218.691 403.5,221.5 Z"/></g>
<g><path style="opacity:0.997" fill="#1c1c1c" d="M 462.5,246.5 C 462.5,249.5 462.5,252.5 462.5,255.5C 462.141,257.371 461.141,258.871 459.5,260C 448.928,266.649 437.595,268.649 425.5,266C 417.534,262.109 415.034,255.943 418,247.5C 418.941,245.273 420.108,243.273 421.5,241.5C 422.906,241.027 423.573,240.027 423.5,238.5C 425.262,237.738 426.262,236.404 426.5,234.5C 428.167,232.167 430.167,230.167 432.5,228.5C 434.404,228.262 435.738,227.262 436.5,225.5C 438.749,224.92 440.415,223.587 441.5,221.5C 443.187,219.834 445.187,218.5 447.5,217.5C 454.61,219.364 457.444,224.03 456,231.5C 458.735,236.299 460.902,241.299 462.5,246.5 Z M 449.5,238.5 C 449.932,239.71 450.599,240.71 451.5,241.5C 453.617,246.041 452.617,249.541 448.5,252C 426.016,259.898 422.682,255.565 438.5,239C 442.181,236.08 445.848,235.913 449.5,238.5 Z"/></g>
<g><path style="opacity:0.997" fill="#1f1f1f" d="M 569.5,222.5 C 572.428,222.435 575.095,221.768 577.5,220.5C 580.994,219.881 584.494,219.214 588,218.5C 589.728,218.899 591.228,219.566 592.5,220.5C 593.219,222.764 593.552,225.097 593.5,227.5C 586.565,230.573 579.231,232.739 571.5,234C 570.216,235.297 570.383,236.464 572,237.5C 577.901,235.446 582.901,236.78 587,241.5C 587.667,242.5 587.667,243.5 587,244.5C 581.029,247.97 574.529,249.47 567.5,249C 566.364,250.145 565.364,251.312 564.5,252.5C 563.566,253.568 563.232,254.901 563.5,256.5C 567.371,256.815 571.038,256.482 574.5,255.5C 578.69,253.926 583.023,253.426 587.5,254C 591.857,258.551 591.19,262.218 585.5,265C 577.299,267.283 568.966,267.95 560.5,267C 552.163,263.816 549.663,257.982 553,249.5C 556.839,244.448 558.339,238.782 557.5,232.5C 557.715,230.821 557.048,229.821 555.5,229.5C 549.527,228.338 544.361,230.005 540,234.5C 537,241.5 534,248.5 531,255.5C 530.126,258.961 530.96,261.961 533.5,264.5C 530.544,269.439 527.044,269.772 523,265.5C 519.79,258.888 519.79,252.222 523,245.5C 524.704,241.259 526.538,237.093 528.5,233C 523.146,233.55 517.813,233.384 512.5,232.5C 509.65,248.526 500.65,259.693 485.5,266C 482.304,266.805 479.304,266.638 476.5,265.5C 477.432,260.356 479.099,255.689 481.5,251.5C 485.548,250.642 489.215,248.975 492.5,246.5C 495.167,245.833 496.833,244.167 497.5,241.5C 499.623,236.686 501.289,231.686 502.5,226.5C 503.924,224.485 504.59,222.152 504.5,219.5C 504.56,218.957 504.893,218.624 505.5,218.5C 508.522,221.094 512.022,222.428 516,222.5C 528.951,220.427 541.951,218.76 555,217.5C 557.707,218.205 559.874,219.705 561.5,222C 564.146,222.497 566.813,222.664 569.5,222.5 Z"/></g>
<g><path style="opacity:0.022" fill="#f6f6f6" d="M 194.5,220.5 C 193.761,220.631 193.094,220.464 192.5,220C 193.437,219.308 194.103,219.475 194.5,220.5 Z"/></g>
<g><path style="opacity:0.048" fill="#f0f0f0" d="M 194.5,220.5 C 197.495,220.294 200.162,220.96 202.5,222.5C 199.572,222.435 196.905,221.768 194.5,220.5 Z"/></g>
<g><path style="opacity:0.765" fill="#868686" d="M 577.5,220.5 C 575.095,221.768 572.428,222.435 569.5,222.5C 571.838,220.96 574.505,220.294 577.5,220.5 Z"/></g>
<g><path style="opacity:0.298" fill="#c7c7c7" d="M 184.5,220.5 C 187.511,221.561 190.511,222.727 193.5,224C 189.76,224.455 186.76,223.288 184.5,220.5 Z"/></g>
<g><path style="opacity:0.871" fill="#848484" d="M 309.5,219.5 C 309.88,221.698 309.213,223.365 307.5,224.5C 307.796,222.597 308.463,220.93 309.5,219.5 Z"/></g>
<g><path style="opacity:0.871" fill="#7b7b7b" d="M 441.5,221.5 C 440.415,223.587 438.749,224.92 436.5,225.5C 437.585,223.413 439.251,222.08 441.5,221.5 Z"/></g>
<g><path style="opacity:0.859" fill="#666666" d="M 592.5,220.5 C 593.993,221.312 594.66,222.645 594.5,224.5C 594.48,225.726 594.147,226.726 593.5,227.5C 593.552,225.097 593.219,222.764 592.5,220.5 Z"/></g>
<g><path style="opacity:0.278" fill="#c5c5c5" d="M 202.5,222.5 C 210.915,224.194 218.915,226.86 226.5,230.5C 225.833,230.5 225.5,230.833 225.5,231.5C 217.87,228.292 210.204,225.292 202.5,222.5 Z"/></g>
<g><path style="opacity:0.993" fill="#2b2b2b" d="M 475.5,225.5 C 475.427,227.027 476.094,228.027 477.5,228.5C 477.427,230.027 478.094,231.027 479.5,231.5C 480.537,235.832 480.537,240.332 479.5,245C 479.338,247.502 480.005,249.669 481.5,251.5C 479.099,255.689 477.432,260.356 476.5,265.5C 471.198,262.923 468.365,258.589 468,252.5C 467.302,245.072 467.802,237.738 469.5,230.5C 470.537,229.07 471.204,227.403 471.5,225.5C 472.833,224.167 474.167,224.167 475.5,225.5 Z"/></g>
<g><path style="opacity:0.647" fill="#7c7c7c" d="M 504.5,219.5 C 504.59,222.152 503.924,224.485 502.5,226.5C 502.41,223.848 503.076,221.515 504.5,219.5 Z"/></g>
<g><path style="opacity:0.655" fill="#8c8c8c" d="M 436.5,225.5 C 435.738,227.262 434.404,228.262 432.5,228.5C 433.262,226.738 434.596,225.738 436.5,225.5 Z"/></g>
<g><path style="opacity:0.773" fill="#7a7a7a" d="M 396.5,218.5 C 393.437,222.566 389.771,225.899 385.5,228.5C 388.563,224.434 392.229,221.101 396.5,218.5 Z"/></g>
<g><path style="opacity:0.094" fill="#bebebe" d="M 471.5,225.5 C 471.204,227.403 470.537,229.07 469.5,230.5C 469.12,228.302 469.787,226.635 471.5,225.5 Z"/></g>
<g><path style="opacity:0.49" fill="#929292" d="M 475.5,225.5 C 476.906,225.973 477.573,226.973 477.5,228.5C 476.094,228.027 475.427,227.027 475.5,225.5 Z"/></g>
<g><path style="opacity:0.227" fill="#c6c6c6" d="M 192.5,234.5 C 191.833,234.5 191.5,234.833 191.5,235.5C 185.92,231.101 179.92,227.268 173.5,224C 176.017,223.743 178.35,224.41 180.5,226C 185.094,228.118 189.094,230.952 192.5,234.5 Z"/></g>
<g><path style="opacity:0.996" fill="#282828" d="M 403.5,221.5 C 409.904,226.642 412.737,233.308 412,241.5C 411.215,243.286 410.049,244.786 408.5,246C 404.515,247.605 400.515,249.105 396.5,250.5C 396.167,250.5 395.833,250.5 395.5,250.5C 396.012,246.965 396.012,243.632 395.5,240.5C 395.842,239.662 396.508,239.328 397.5,239.5C 399.5,239.5 400.5,238.5 400.5,236.5C 400.167,234.167 398.833,232.833 396.5,232.5C 400.143,230.816 402.81,227.983 404.5,224C 403.748,223.329 403.414,222.496 403.5,221.5 Z"/></g>
<g><path style="opacity:0.447" fill="#b5b5b5" d="M 196.5,226.5 C 201.778,226.943 206.778,228.943 211.5,232.5C 210.635,233.583 209.635,233.749 208.5,233C 204.633,230.567 200.633,228.4 196.5,226.5 Z"/></g>
<g><path style="opacity:0.859" fill="#888888" d="M 555.5,229.5 C 557.048,229.821 557.715,230.821 557.5,232.5C 556.599,231.71 555.932,230.71 555.5,229.5 Z"/></g>
<g><path style="opacity:0.412" fill="#969696" d="M 477.5,228.5 C 478.906,228.973 479.573,229.973 479.5,231.5C 478.094,231.027 477.427,230.027 477.5,228.5 Z"/></g>
<g><path style="opacity:0.643" fill="#a0a0a0" d="M 383.5,230.5 C 383.573,232.027 382.906,233.027 381.5,233.5C 381.427,231.973 382.094,230.973 383.5,230.5 Z"/></g>
<g><path style="opacity:0.725" fill="#9b9b9b" d="M 426.5,234.5 C 426.262,236.404 425.262,237.738 423.5,238.5C 423.738,236.596 424.738,235.262 426.5,234.5 Z"/></g>
<g><path style="opacity:0.624" fill="#848484" d="M 214.5,234.5 C 220.233,236.713 224.9,240.379 228.5,245.5C 227.998,246.521 227.332,246.688 226.5,246C 223.744,242.573 220.41,239.907 216.5,238C 215.177,237.184 214.511,236.017 214.5,234.5 Z"/></g>
<g><path style="opacity:0.616" fill="#9d9d9d" d="M 400.5,236.5 C 400.5,238.5 399.5,239.5 397.5,239.5C 398.167,238.167 399.167,237.167 400.5,236.5 Z"/></g>
<g><path style="opacity:0.871" fill="#898989" d="M 449.5,238.5 C 451.048,238.821 451.715,239.821 451.5,241.5C 450.599,240.71 449.932,239.71 449.5,238.5 Z"/></g>
<g><path style="opacity:0.447" fill="#989898" d="M 423.5,238.5 C 423.573,240.027 422.906,241.027 421.5,241.5C 421.427,239.973 422.094,238.973 423.5,238.5 Z"/></g>
<g><path style="opacity:0.872" fill="#2e2e2e" d="M 635.5,240.5 C 635.5,240.833 635.5,241.167 635.5,241.5C 626.5,241.5 617.5,241.5 608.5,241.5C 608.5,241.167 608.5,240.833 608.5,240.5C 617.5,240.5 626.5,240.5 635.5,240.5 Z"/></g>
<g><path style="opacity:0.722" fill="#818181" d="M 225.5,231.5 C 225.5,230.833 225.833,230.5 226.5,230.5C 242.105,235.78 254.105,245.446 262.5,259.5C 261.132,260.594 259.965,260.26 259,258.5C 256.552,254.385 253.719,250.552 250.5,247C 242.547,241.212 234.214,236.046 225.5,231.5 Z"/></g>
<g><path style="opacity:0.996" fill="#0f0f0f" d="M 354.5,240.5 C 354.5,242.5 354.5,244.5 354.5,246.5C 345.833,246.5 337.167,246.5 328.5,246.5C 328.5,244.5 328.5,242.5 328.5,240.5C 337.376,240.427 346.043,240.427 354.5,240.5 Z"/></g>
<g><path style="opacity:0.451" fill="#9e9e9e" d="M 82.5,240.5 C 82.573,242.027 81.9063,243.027 80.5,243.5C 80.427,241.973 81.0937,240.973 82.5,240.5 Z"/></g>
<g><path style="opacity:0.004" fill="#fdfefd" d="M 480.5,242.5 C 481.833,243.167 481.833,243.167 480.5,242.5 Z"/></g>
<g><path style="opacity:0.843" fill="#7b7b7b" d="M 497.5,241.5 C 496.833,244.167 495.167,245.833 492.5,246.5C 493.833,244.5 495.5,242.833 497.5,241.5 Z"/></g>
<g><path style="opacity:0.467" fill="#939393" d="M 61.5,243.5 C 62.9063,243.973 63.573,244.973 63.5,246.5C 62.0937,246.027 61.427,245.027 61.5,243.5 Z"/></g>
<g><path style="opacity:0.188" fill="#cfcfcf" d="M 79.5,244.5 C 80.209,245.404 81.209,245.737 82.5,245.5C 81.2918,246.782 79.9584,246.782 78.5,245.5C 78.6236,244.893 78.9569,244.56 79.5,244.5 Z"/></g>
<g><path style="opacity:0.835" fill="#808080" d="M 191.5,235.5 C 191.5,234.833 191.833,234.5 192.5,234.5C 198.188,238.188 202.855,242.855 206.5,248.5C 205.075,246.969 204.409,247.302 204.5,249.5C 200.902,244.232 196.568,239.565 191.5,235.5 Z"/></g>
<g><path style="opacity:0.467" fill="#9a9a9a" d="M 298.5,244.5 C 298.573,246.027 297.906,247.027 296.5,247.5C 296.427,245.973 297.094,244.973 298.5,244.5 Z"/></g>
<g><path style="opacity:0.43" fill="#8a8a8a" d="M 328.5,240.5 C 328.5,242.5 328.5,244.5 328.5,246.5C 337.167,246.5 345.833,246.5 354.5,246.5C 354.5,244.5 354.5,242.5 354.5,240.5C 355.468,242.607 355.802,244.941 355.5,247.5C 346.167,247.5 336.833,247.5 327.5,247.5C 327.198,244.941 327.532,242.607 328.5,240.5 Z"/></g>
<g><path style="opacity:0.429" fill="#a5a5a5" d="M 608.5,240.5 C 608.5,240.833 608.5,241.167 608.5,241.5C 608.5,243.167 608.5,244.833 608.5,246.5C 617.5,246.5 626.5,246.5 635.5,246.5C 635.5,244.833 635.5,243.167 635.5,241.5C 635.5,241.167 635.5,240.833 635.5,240.5C 636.468,242.607 636.802,244.941 636.5,247.5C 626.833,247.5 617.167,247.5 607.5,247.5C 607.198,244.941 607.532,242.607 608.5,240.5 Z"/></g>
<g><path style="opacity:0.995" fill="#080908" d="M 608.5,241.5 C 617.5,241.5 626.5,241.5 635.5,241.5C 635.5,243.167 635.5,244.833 635.5,246.5C 626.5,246.5 617.5,246.5 608.5,246.5C 608.5,244.833 608.5,243.167 608.5,241.5 Z"/></g>
<g><path style="opacity:0.004" fill="#fdfefd" d="M 465.5,249.5 C 466.525,249.897 466.692,250.563 466,251.5C 465.536,250.906 465.369,250.239 465.5,249.5 Z"/></g>
<g><path style="opacity:0.004" fill="#fdfefd" d="M 579.5,249.5 C 580.833,250.167 580.833,250.167 579.5,249.5 Z"/></g>
<g><path style="opacity:0.798" fill="#6c6c6c" d="M 462.5,246.5 C 464.433,249.322 464.433,252.322 462.5,255.5C 462.5,252.5 462.5,249.5 462.5,246.5 Z"/></g>
<g><path style="opacity:0.239" fill="#d0d0d0" d="M 395.5,250.5 C 395.833,250.5 396.167,250.5 396.5,250.5C 396.167,251.167 395.833,251.833 395.5,252.5C 394.167,251.833 394.167,251.167 395.5,250.5 Z"/></g>
<g><path style="opacity:0.529" fill="#898989" d="M 66.5,251.5 C 67.9063,251.973 68.573,252.973 68.5,254.5C 67.0937,254.027 66.427,253.027 66.5,251.5 Z"/></g>
<g><path style="opacity:0.004" fill="#fdfefd" d="M 406.5,255.5 C 407.833,256.167 407.833,256.167 406.5,255.5 Z"/></g>
<g><path style="opacity:0.579" fill="#676767" d="M 564.5,252.5 C 564.5,253.5 564.5,254.5 564.5,255.5C 567.833,255.5 571.167,255.5 574.5,255.5C 571.038,256.482 567.371,256.815 563.5,256.5C 563.232,254.901 563.566,253.568 564.5,252.5 Z"/></g>
<g><path style="opacity:0.584" fill="#818181" d="M 68.5,254.5 C 69.9063,254.973 70.573,255.973 70.5,257.5C 69.0937,257.027 68.427,256.027 68.5,254.5 Z"/></g>
<g><path style="opacity:0.831" fill="#737373" d="M 239.5,259.5 C 238.075,257.969 237.409,258.302 237.5,260.5C 235.085,258.409 234.585,256.076 236,253.5C 237.442,255.391 238.609,257.391 239.5,259.5 Z"/></g>
<g><path style="opacity:0.733" fill="#a0a0a0" d="M 385.5,259.5 C 387.292,258.527 388.625,259.194 389.5,261.5C 387.938,261.267 386.605,260.6 385.5,259.5 Z"/></g>
<g><path style="opacity:0.96" fill="#646464" d="M 406.5,257.5 C 415.683,256.973 418.35,260.639 414.5,268.5C 413.493,263.433 410.826,259.766 406.5,257.5 Z"/></g>
<g><path style="opacity:0.749" fill="#949494" d="M 374.5,261.5 C 375.404,262.209 375.737,263.209 375.5,264.5C 374.733,263.828 374.066,262.995 373.5,262C 373.728,261.601 374.062,261.435 374.5,261.5 Z"/></g>
<g><path style="opacity:0.996" fill="#464646" d="M 239.5,259.5 C 243.611,267.751 244.444,276.418 242,285.5C 239.245,282.441 238.745,278.941 240.5,275C 239.816,270.082 238.816,265.248 237.5,260.5C 237.409,258.302 238.075,257.969 239.5,259.5 Z"/></g>
<g><path style="opacity:0.686" fill="#989898" d="M 75.5,263.5 C 76.9063,263.973 77.573,264.973 77.5,266.5C 76.0937,266.027 75.427,265.027 75.5,263.5 Z"/></g>
<g><path style="opacity:0.149" fill="#c0c0c0" d="M 393.5,263.5 C 395.027,263.427 396.027,264.094 396.5,265.5C 394.973,265.573 393.973,264.906 393.5,263.5 Z"/></g>
<g><path style="opacity:0.78" fill="#878787" d="M 284.5,264.5 C 284.262,266.404 283.262,267.738 281.5,268.5C 281.738,266.596 282.738,265.262 284.5,264.5 Z"/></g>
<g><path style="opacity:0.906" fill="#646464" d="M 268.5,281.5 C 267.415,283.587 265.749,284.92 263.5,285.5C 264.585,283.413 266.251,282.08 268.5,281.5 Z"/></g>
<g><path style="opacity:0.725" fill="#868686" d="M 263.5,285.5 C 263.027,286.906 262.027,287.573 260.5,287.5C 260.973,286.094 261.973,285.427 263.5,285.5 Z"/></g>
<g><path style="opacity:0.765" fill="#8f8f8f" d="M 81.5,287.5 C 83.4044,287.738 84.7377,288.738 85.5,290.5C 83.5956,290.262 82.2623,289.262 81.5,287.5 Z"/></g>
<g><path style="opacity:0.999" fill="#4d4d4d" d="M 206.5,248.5 C 212.028,258.606 211.528,268.606 205,278.5C 196.044,290.795 184.711,300.129 171,306.5C 169.795,305.929 168.628,305.262 167.5,304.5C 175.005,299.915 182.338,295.082 189.5,290C 195.078,285.093 199.911,279.593 204,273.5C 208.278,265.538 208.444,257.538 204.5,249.5C 204.409,247.302 205.075,246.969 206.5,248.5 Z"/></g>
<g><path style="opacity:0.518" fill="#939393" d="M 89.5,294.5 C 91.0269,294.427 92.0269,295.094 92.5,296.5C 90.9731,296.573 89.9731,295.906 89.5,294.5 Z"/></g>
<g><path style="opacity:0.51" fill="#8d8d8d" d="M 96.5,299.5 C 98.0269,299.427 99.0269,300.094 99.5,301.5C 97.9731,301.573 96.9731,300.906 96.5,299.5 Z"/></g>
<g><path style="opacity:0.475" fill="#919191" d="M 99.5,301.5 C 101.027,301.427 102.027,302.094 102.5,303.5C 100.973,303.573 99.9731,302.906 99.5,301.5 Z"/></g>
<g><path style="opacity:0.998" fill="#4d4d4d" d="M 233.5,293.5 C 237.439,293.178 238.272,294.511 236,297.5C 228.7,305.966 219.867,312.299 209.5,316.5C 208.354,315.855 207.354,315.022 206.5,314C 217.722,309.926 226.722,303.093 233.5,293.5 Z"/></g>
<g><path style="opacity:0.886" fill="#838383" d="M 131.5,317.5 C 133.698,317.12 135.365,317.787 136.5,319.5C 134.597,319.204 132.93,318.537 131.5,317.5 Z"/></g>
</svg>
