<svg id="Capa_1" data-name="Capa 1" xmlns="http://www.w3.org/2000/svg" viewBox="0 0 507 506.97"><defs><style>.cls-1{fill:#ee3224;}</style></defs><title>logo-scotiabank</title><path class="cls-1" d="M430,278.21c1.76,86.68-76.59,152.13-142.06,152.13H126L24.5,531.5H286.12c83.53,0,163.65-75.14,163.65-164.85,0-26.35-3.18-60.66-19.81-86.68v-1.76Zm-27.77,63.86c10.1-18,15.05-37.87,16.28-57.16H345a178.76,178.76,0,0,1-9.71,57.16ZM330.54,353.4c-8.34,21.21-28.14,48.79-47.4,63.84,37.3,0,79.94-16.27,111.1-63.84Zm-8.34-11.33c6.56-18,9.56-37.87,11.34-57.16H222.44c1.77,19.29,4.77,39.12,11.32,57.16Zm-101.16,0C214.5,322.25,211,302.81,211,284.91H137.54c1.77,19.29,6.55,39.12,16.25,57.16Zm57.13,63.68c14.5-13.1,30.78-34.31,39.09-52.35H238.72c8.33,18,24.59,39.25,39.45,52.35ZM160.36,353.4c32.54,47.57,75.16,63.84,113,63.84-19.84-15.06-40.86-42.63-47.61-63.84Zm175-137.12C342,233.8,345,253.61,345,273.41h73.43c-1.23-19.8-6.2-39.61-16.28-57.13ZM394.24,203c-31.16-45.63-73.79-63.67-111.1-63.67,19.26,14.51,39.06,42.11,47.4,63.67ZM233.76,216.28c-6.55,17.52-9.55,37.33-11.32,57.13h111.1c-1.78-19.8-4.79-39.61-11.34-57.13Zm-79.95,0c-9.71,17.52-14.5,37.33-16.25,57.13H211a165.11,165.11,0,0,1,10.1-57.13Zm124.36-64.22C263.31,165.17,247.05,185,238.73,203h78.54c-8.32-18-24.6-37.83-39.1-50.94ZM225.8,203c6.75-21.57,27.77-49.17,47.61-63.67-37.88,0-80.51,18-113,63.67ZM126,276.42c-16.26-25.82-19.83-60.14-19.83-86.5,0-89.7,80.15-165.4,163.63-165.4H531.5L430,126.93H268.09c-65.08,0-143.84,66-142,149.49Z" transform="translate(-24.5 -24.52)"/></svg>