<svg id="Capa_1" data-name="Capa 1" xmlns="http://www.w3.org/2000/svg" viewBox="0 0 1033.56 1032"><defs><style>.cls-1{fill:#fff;}.cls-2{fill:#060606;}.cls-3{fill:#1f1f1f;}.cls-4{fill:#2c2c2c;}.cls-5{fill:#343434;}.cls-6{fill:#f2f2f2;}.cls-7{fill:#141e24;}</style></defs><title>ico_head</title><path class="cls-1" d="M547.7,29.28c281.57,0,509.82,228.25,509.82,509.82S829.27,1048.92,547.7,1048.92,37.89,820.66,37.89,539.1,266.14,29.28,547.7,29.28" transform="translate(-27.59 -22)"/><path class="cls-2" d="M544.62,22c226.66,0,427.74,148.13,493.69,363.74,66.7,218.06-16,452.12-204.89,579.82-3.44,2.32-6.9,4.63-10.47,6.73-10.56,6.2-20.62,5.18-27.35-5.08-6.58-10-4.41-20.29,5.44-27.47,21.28-15.5,43.36-30,62.44-48.27C1005.29,755.49,1056,590.8,1000,402.8,944.37,216,813.85,101.37,621,68.81,311.91,16.62,43.17,270,70.14,583.36,90.3,817.64,293.08,1008.26,527.7,1013.5c4.16.09,8.34,0,12.48.31,13,1,23.94,5.73,23.6,20.63-.34,14.73-10.9,19.8-24.31,19.55-31.24-.58-62.33-3.17-93-9.33C227.89,1000.72,64.68,828.3,32.72,607.79-7.78,328.33,196.07,61.13,476.2,26" transform="translate(-27.59 -22)"/><path class="cls-3" d="M681.82,465.93c27.38,18.34,27.46,18.42,50.52-6.76q60.15-65.68,120.14-131.53c16.69-18.25,16.62-18.1,32.07,1.87,5.81,7.51,8.27,17.48,16.87,22.92.22,6-4.22,5.74-8.2,6.11-2.76-.46-5.69-1.15-7.52-3.21-10.9-12.3-16.5-5.48-22.89,5.11-12.07,20-22.87,40.71-35.15,59.53C854,404.84,872.21,364.55,914,388.53c6.2,4.31,14.55-1.07,20.48,4.48l45.85,51.27c-26.54-2.91-47.65-4.17-68.33-7.89-11.81-2.13-19.38,1.22-27.67,8.88-51.4,47.5-103.56,94.17-154.58,142.07-10.94,10.26-18.17,10.06-29.83,2-22.19-15.33-46-28.24-68.29-43.49-11.51-7.9-17.74-6.94-26.85,4-40.31,48.49-82.05,95.77-122.42,144.21-8.75,10.5-15.67,12.16-27.59,6-24-12.39-49-22.62-72.87-35.17-12.13-6.39-20.75-5-31.89,2.56-47.61,32.18-95.91,63.34-144.08,94.69-5.52,3.59-10.42,9-21.23,9.65,17.47-25.09,33.29-47.92,49.23-70.68,36.14-51.63,72.72-103,108.25-155,9.46-13.86,15.37-20.72,29.38-4,9.09,10.87,23,17.67,34.82,26.29.49,3.74-1.86,5.26-4.88,6.25-9.21,1.09-15.47-4.89-22.27-9.44-17.25-11.55-17.5-11.57-25.82,8.15s-15,40.13-25.64,59.94c8.85-9.46,15.24-19.73,23.66-28.34,9-9.21,18.51-14.59,31.09-6.67,4.79,3,8.49,6.4,11.21-3.26,2.42-8.58,11.26-5.34,18-4.48,4.09.52,9.84,4.62,10-4.27,1.59-2.49,3.42-4.27,6.57-2.47,26.61,17.26,26.61,17.26,45.68-8.38L597.51,409.31c8.73-1.44,10.66,4.22,11.54,11-9.42,28.79-22.89,56-32.8,83,37.15-41.76,34.44-39.81,59.3-22.23,3.6-26.33,21.35-11.31,33.87-11.77C673.77,469,677.74,467.25,681.82,465.93Z" transform="translate(-27.59 -22)"/><path class="cls-4" d="M606.36,422.47c0-6.36-3.08-10.67-8.85-13.16,3.65-7.21,7.45-3.13,11.26-.17l73.05,56.79c-1.56,4.74-3.93,8.74-9.21,10.09-16.94-12.81-35.44-23.41-52-36.75C614.77,434.58,607.93,430.76,606.36,422.47Z" transform="translate(-27.59 -22)"/><path class="cls-5" d="M892.73,355.81l8.69-3.38c13.18,11.76,24.73,24.84,33,40.58-6.78-.73-13.21,9-20.24.67C910.52,379.08,892.85,372.42,892.73,355.81Z" transform="translate(-27.59 -22)"/><path class="cls-5" d="M401.23,572.52l5.1-4.06c9.21,2.44,15.73,8.7,21.94,15.41l-5,4.55C410.3,590.87,403.3,585.1,401.23,572.52Z" transform="translate(-27.59 -22)"/><path class="cls-6" d="M401.23,572.52c5.93,7.24,13.49,12.23,22,15.9-1.06,3.16,14,8.27-.65,9.28-8,.55-16.22-2.66-26.71-4.61,1.59,6.9,3,12.87,4.3,18.68-2.45.69-4.15,1.76-4.9,1.3-28.8-18-28.77-18-50.35,7.62-7.34,8.72-14.75,17.38-25.94,23.68,12.39-30.48,24.86-60.91,37.09-91.45,3.57-8.91,8.34-4.07,12.8-1.5C380,557.88,388.39,568.62,401.23,572.52Z" transform="translate(-27.59 -22)"/><path class="cls-6" d="M606.36,422.47C625,436,643.8,449.29,662.28,463c4.43,3.29,12.22,4.49,10.33,13l-32-6.08c1.44,7.25,2.54,12.78,3.6,18.16-4.72,3.15-7.43.18-9.5-1.93-16.29-16.61-28.86-13.84-40.9,5.62-7.08,11.44-17.25,21-28.25,30C579.05,488.35,586.74,453,606.36,422.47Z" transform="translate(-27.59 -22)"/><path class="cls-6" d="M892.73,355.81c8.39,10,16.59,20.2,25.25,30,5.67,6.4,2.44,7.66-3.79,7.9-22-13.23-40.4-10.09-57.88,9.49-11.17,12.5-25.61,22.1-42.16,30.1q26.82-45.81,53.61-91.66c3.53-6.06,7-5.45,11.14-.7C883.37,346,888.11,350.86,892.73,355.81Z" transform="translate(-27.59 -22)"/><path d="M512.33,982.33l-12.49-4.16c32.14-16.67,142.08-76.38,141.51-154-.35-47.76-39.76-91.09-118.85-130.63l.47-.93c79.46,39.73,126.35,83.38,126.7,131.56.21,29.21-16.94,62-45.78,91.56C574.07,946.35,538.65,968.68,512.33,982.33Z" transform="translate(-27.59 -22)"/><path d="M744.8,941.9a21.36,21.36,0,0,1-7.81-1.41c-19.37,28-52.07,52.64-97.93,72.57l6.45,6.72c41.38-18,74.6-45,95.72-70.75,2-2.39,3.74-4.8,5.44-7.22C746.06,941.85,745.44,941.9,744.8,941.9Z" transform="translate(-27.59 -22)"/><path d="M589.84,695.16l.38,0c-9.72-3.8-19.67-7.46-29.86-10.91l-.34,1q14,4.75,27.28,10A23.3,23.3,0,0,1,589.84,695.16Z" transform="translate(-27.59 -22)"/><path d="M604.1,700.8a19.81,19.81,0,0,1,2,2.33,457.75,457.75,0,0,1,41.69,20.93,22.75,22.75,0,0,1,2.51-.14c.82,0,1.62.05,2.39.12A506.62,506.62,0,0,0,604.1,700.8Z" transform="translate(-27.59 -22)"/><path d="M712.1,765.91c-12.78-12-28.14-23.29-45.48-33.81a21.14,21.14,0,0,1,2.51,5.06,292.33,292.33,0,0,1,39.06,30.57c1.35,1.27,2.61,2.56,3.9,3.84a17.88,17.88,0,0,1,3.29-2.44C714.29,768.06,713.22,767,712.1,765.91Z" transform="translate(-27.59 -22)"/><path d="M766.2,870c-1-22.76-9.48-46.7-24.58-69.35a18.11,18.11,0,0,1-3.69,3.73,138.89,138.89,0,0,1,20,65.62,112.79,112.79,0,0,1-3.36,32.59A18.38,18.38,0,0,1,762,909.8,125.91,125.91,0,0,0,766.2,870Z" transform="translate(-27.59 -22)"/><path d="M830.24,822.33c-31.09-62.18-121.63-115.23-243.72-142.8l2.92.56c62.52,14.12,121.75,35.23,164.27,60.85,39.78,24,64.28,49.48,79.08,79.08Z" transform="translate(-27.59 -22)"/><path class="cls-7" d="M539.94,227.08c-9.11-1.4-17.21,1.53-24.79,6.22-10.36,6.41-20.8,12.71-30.89,19.52-4.66,3.15-8.59,3.82-14.09,1.84-20.05-7.21-40.33-13.77-60.53-20.57q-18.27-6.14-36.57-12.25a3.73,3.73,0,0,0-3.59.12c-5,3.26-10.17,6.39-15.22,9.63-1.93,1.23-1.92,2.26-.07,3.69,2.74,2.11,5.52,4.18,8.28,6.26l29.78,22.35.91.75c0,.11,32.6,23.54,32.91,24.65-.27.25-3.29,2-3.56,2.26q-14.31,8.94-28.61,17.89a3.81,3.81,0,0,1-3.71.51c-9.19-3.19-18.45-6.15-27.65-9.29a4.62,4.62,0,0,0-4.48.65c-3.23,2.17-6.57,4.17-9.87,6.24s-3.32,2.72-.3,5q15.5,11.85,31,23.67a5,5,0,0,1,2,3.28q3.92,19.38,8,38.72c.6,2.91,1.45,3.27,4,1.72,3.67-2.27,7.28-4.64,11-6.85a3.9,3.9,0,0,0,2-3.25c1.2-9.74,2.53-19.46,3.7-29.2a3.6,3.6,0,0,1,1.91-3q12.93-8,25.8-16.18c2-1.28,4-2.61,6.26-4,.27,1.27.45,2.09.62,2.91L461,404.88c.66,3.28,1.41,3.61,4.21,1.86,4.74-3,9.44-6,14.2-8.89a3.91,3.91,0,0,0,2.05-3.2c1.07-9.07,2.27-18.13,3.41-27.19q3-24,6-48.08c1-8.35,2.3-16.68,2.93-25.09h0c.13-.66.26-1.32.4-2a6.77,6.77,0,0,0,.37-3.22h0c-.05-3.17,1.82-4.81,4.38-6.38Q516.36,272,533.55,261c7.22-4.62,13-10.58,15.63-19C551.67,234.17,548.1,228.34,539.94,227.08Z" transform="translate(-27.59 -22)"/></svg>