<svg id="Capa_1" data-name="Capa 1" xmlns="http://www.w3.org/2000/svg" viewBox="0 0 1885.81 883.63"><defs><style>.cls-1{fill:#090909;}.cls-2{fill:#060606;}.cls-3{fill:#fff;}.cls-4{fill:#1f1f1f;}.cls-5{fill:#2c2c2c;}.cls-6{fill:#343434;}.cls-7{fill:#f2f2f2;}.cls-8{fill:#141e24;}</style></defs><title>logo_nombre</title><path class="cls-1" d="M1044,394.07c37.3-3.66,62.43-5,87.17-8.86,25.26-3.92,47.7,3,50,28.31,2.13,23.47-16.27,37.2-42.23,40-28.4,3.07-56.21,13.53-84.54,14.81-42.24,1.89-54.18,28.62-58,62.55-2.48,22.19,1.26,48.63-32.37,43.4-27.76-4.32-39.28-28.12-35.75-53.08,3.85-27.25,3.6-49.07-13.39-73.88-20.42-29.83-4-54.91,34.13-57,13.85-.77,25.61,4.68,29.79-15.29,3.47-16.54,7.49-26.13-10.24-41.63-38.09-33.31-30.26-59.09,18.39-74.05,51.55-15.84,103.37-31.36,155.94-43.18,75.86-17.06,156.28,34.08,177.61,108.13,9,31.3-10,58.7-7.93,89.51,3.59,53,11.8,60.29,60.46,36.81,62-29.94,98-80.8,113.08-147.25.74-3.28.55-6.77,1.28-10.06,5.95-26.78,5.14-71.29,29.44-72.31,35.79-1.51,31.12,45.12,41.53,71.81,10.29,26.4,2.14,54.58-7.95,78.73-32,76.56-83.62,138.54-157,177.86-88.11,47.2-155.24,6.36-161-95-2.67-47.24-1.92-94.58,10.37-140.72,7-26.37.17-36.87-28.72-34.55a608.26,608.26,0,0,0-114.37,20.49C1054.36,312.25,1068,357.24,1044,394.07Z" transform="translate(-21.19 -69.77)"/><path class="cls-2" d="M1675.09,463.54c-21.39,28.59-35,53.25-41.45,81.69-3.29,14.57-13.82,23.9-27.55,26.92-16.66,3.66-23.54-10.65-30.32-21.9-20.87-34.6-30.31-68.62-8.63-108.75,30.47-56.39,53.87-116.66,85-172.64,9.28-16.68,2.14-61.58,43.88-44,36,15.16,66.72,40.8,50.06,86.21-13.28,36.19-15.09,72.37-13.84,109.54.32,9.49-4.19,22.23,7.07,27.38,14.38,6.58,21-7.51,28.06-15.69,30.41-35,36.3-79.28,43.34-122.54,3-18.51,3.1-38.22,14.85-52.95,10.07-12.62-1.56-48.14,26.58-37.5,24,9.09,64.75,28.37,52.65,58.41-27.43,68.12-20,144.15-54.29,209.29a232.49,232.49,0,0,1-31.79,45.58c-36.38,40.91-56.9,40.29-96.3,1.1C1702.94,514.32,1690.43,490.4,1675.09,463.54Z" transform="translate(-21.19 -69.77)"/><path class="cls-1" d="M1623.41,741.32c18.52.67,35.93,1.5,53.1-3.7,12.36-3.74,25.15-1.7,27.9,11.6,2.66,12.9-10.6,17.48-20.78,20-18.43,4.52-37.44,5.85-56.45,5.68-30.63-.28-44.74-22.47-32.53-51.2,3.43-8.09,7.8-15.77,11.52-23.75,5.43-11.64,1.48-36.64-6.16-39.95-13.11-5.67-43.84,4.58-49,16.45-8.13,18.58-16.78,37-24,55.89-3.55,9.33-11.08,19.66.48,29.55,4.21,3.6,3.33,8.84-.47,12.63-4.36,4.35-9.39,4-14.94,1.41-13.89-6.41-21-27.62-14.17-48.38,6.27-19.11,14.27-37.65,21.88-57.4-15.8-3-30.94,5.36-46.33-1.59-6-2.72-5.28,7.56-6.44,12.29-9.25,37.78-33.49,64.52-65.89,82.94-34.06,19.37-59.1,5.43-64.2-33.64-3.1-23.76,1.19-47.29,5.29-70.68,1-5.66,4.13-10.68,9.53-12.15,5.93-1.61,7.35,5.15,10,8.49,8.63,10.85,13.55,22.09,8.85,37.24-3.45,11.13-6.91,28,2.83,34.29,11.32,7.34,24.07-4.44,34.18-12,17.63-13.16,26.91-31.76,31.16-53.1q2.58-12.87,5.82-25.6c1.16-4.52,4.77-7.93,8.81-4.35,24.2,21.48,49.65,2.31,74.33,2.25,23.13-.06,46.24-4.31,69.39-6.23,3.74-.32,9.58.62,11.25,3.12,11.55,17.32,26.38,10.93,41.59,7.53s30.65-5.44,46.07-7.46c10.61-1.39,19.94,4.45,21.71,13.55,1.64,8.41-7.55,13.39-16,15.51q-23.54,6-47.13,11.65c-5.13,1.23-12.44,1-11.25,8.45s8.75,4.56,13.48,4.48c12-.19,22.88-1.67,33.22,9.05,7.91,8.21,4.52,10.14-1.51,14.87-10.94,8.58-23.78,10.85-36.56,8.73C1633,714.63,1627,724.92,1623.41,741.32Z" transform="translate(-21.19 -69.77)"/><path class="cls-1" d="M1159.27,748.69c-17.2-2.47-36-4.25-48.76-21.29,12.7-4.93,24.13-8.94,35.19-13.8,10.31-4.53,18.48-11.57,20-23.66,2.31-18-21.72-54.93-38.65-60.75-6.38-2.2-11.58.65-14.7,4-23.93,26.14-57.39,46.41-55.85,88.77.22,5.93-2,11.94-3.08,17.93-2.36,13.17-3.39,28.81,10.93,33.11,15.44,4.63,14.56-13.66,21-24.66,20.18,17.9,43.42,25.14,67,31.52,10.57,2.86,21.45,3.17,24.31-10.34C1179.48,756.55,1173.3,750.71,1159.27,748.69Zm-36.83-79.6c4.94-1,12.21,8.15,10.16,12.75-6.31,14.2-21.13,11.91-36,17.11C1103.05,683.21,1109,671.68,1122.44,669.09Z" transform="translate(-21.19 -69.77)"/><path class="cls-1" d="M1310,693.14c-6.46-14-17.83-26.17-14.07-44.76,2.23-11-20-24.51-28.26-18.6-29.6,21.06-59.66,42.12-77.28,75.29-20.9,39.35-4.16,68.13,39.9,70.09,17.75.45,34.7-3.21,51.23-9.69C1323.92,748.86,1329.11,734.59,1310,693.14Zm-27.86,35.15A94.93,94.93,0,0,1,1230,741.9c-4.18-.47-12.25,2.56-16.53-3.81-5.13-7.61,2-13.68,5.41-19.86,4.88-8.92,11.52-16.46,19.08-23.28,26.75-24.11,44.84-18.19,52.73,17C1292.57,720.41,1288,724.84,1282.11,728.29Z" transform="translate(-21.19 -69.77)"/><circle class="cls-3" cx="445.34" cy="442.75" r="436.52"/><path class="cls-2" d="M463.88,69.77C658,69.75,830.13,196.6,886.6,381.22c57.1,186.71-13.71,387.12-175.44,496.46-2.94,2-5.9,4-9,5.76-9,5.31-17.66,4.44-23.42-4.35-5.63-8.59-3.77-17.37,4.66-23.52,18.22-13.27,37.12-25.66,53.46-41.33C858.32,697.81,901.75,556.8,853.8,395.83c-47.64-160-159.39-258.1-324.49-286C264.63,65.17,34.53,282.12,57.62,550.42,74.89,751,248.51,914.24,449.4,918.72c3.56.08,7.14,0,10.68.27,11.15.83,20.5,4.91,20.21,17.66s-9.33,17-20.81,16.75c-26.75-.5-53.37-2.72-79.61-8C192.69,907.78,53,760.15,25.58,571.35-9.1,332.06,165.45,103.28,405.3,73.22A504.09,504.09,0,0,1,463.88,69.77Z" transform="translate(-21.19 -69.77)"/><path class="cls-4" d="M581.36,449.88c23.45,15.71,23.52,15.77,43.25-5.79q51.51-56.23,102.87-112.62c14.29-15.63,14.23-15.5,27.46,1.6,5,6.43,7.08,15,14.45,19.63.18,5.15-3.62,4.91-7,5.23-2.37-.39-4.87-1-6.44-2.75-9.33-10.53-14.13-4.69-19.6,4.37-10.33,17.11-19.58,34.86-30.1,51,22.57-13,38.15-47.46,73.89-26.92,5.3,3.69,12.46-.92,17.53,3.84,12,13.44,24.05,26.88,39.26,43.9-22.72-2.49-40.8-3.58-58.5-6.76-10.12-1.82-16.6,1-23.7,7.6-44,40.67-88.67,80.64-132.36,121.64-9.36,8.79-15.55,8.62-25.53,1.72-19-13.12-39.43-24.17-58.48-37.23-9.85-6.77-15.18-6-23,3.45-34.51,41.51-70.25,82-104.82,123.47-7.49,9-13.42,10.42-23.62,5.14-20.51-10.6-42-19.36-62.39-30.11-10.39-5.47-17.77-4.26-27.31,2.19-40.77,27.55-82.12,54.23-123.36,81.08-4.73,3.07-8.93,7.66-18.18,8.26,15-21.48,28.5-41,42.15-60.51,30.94-44.21,62.27-88.16,92.69-132.73,8.1-11.87,13.16-17.75,25.16-3.4,7.78,9.3,19.72,15.13,29.8,22.51.42,3.2-1.58,4.5-4.17,5.35-7.89.94-13.25-4.18-19.07-8.08-14.77-9.89-15-9.9-22.11,7s-12.86,34.35-21.95,51.32c7.58-8.1,13.05-16.9,20.26-24.26,7.71-7.89,15.84-12.5,26.62-5.72,4.1,2.58,7.27,5.48,9.6-2.79,2.06-7.35,9.64-4.57,15.39-3.84,3.51.45,8.42,4,8.6-3.65,1.36-2.14,2.93-3.66,5.63-2.12,22.78,14.78,22.78,14.78,39.1-7.17L509.17,401.4c7.47-1.23,9.13,3.61,9.89,9.42-8.07,24.65-19.61,47.93-28.09,71.1,31.81-35.76,29.49-34.08,50.78-19,3.08-22.54,18.28-9.68,29-10.07C574.47,452.52,577.86,451,581.36,449.88Z" transform="translate(-21.19 -69.77)"/><path class="cls-5" d="M516.75,412.67c0-5.45-2.64-9.14-7.58-11.27,3.12-6.18,6.38-2.68,9.64-.14l62.55,48.62c-1.33,4.06-3.37,7.48-7.88,8.64-14.51-11-30.35-20-44.54-31.47C524,423,518.1,419.77,516.75,412.67Z" transform="translate(-21.19 -69.77)"/><path class="cls-6" d="M761.94,355.59l7.45-2.89c11.28,10.07,21.17,21.27,28.26,34.75-5.8-.63-11.31,7.72-17.33.57C777.18,375.52,762.05,369.81,761.94,355.59Z" transform="translate(-21.19 -69.77)"/><path class="cls-6" d="M341.11,541.14l4.36-3.47c7.89,2.08,13.48,7.44,18.8,13.19l-4.32,3.9C348.88,556.85,342.88,551.92,341.11,541.14Z" transform="translate(-21.19 -69.77)"/><path class="cls-7" d="M341.11,541.14c5.08,6.21,11.55,10.48,18.84,13.62-.9,2.71,12,7.08-.55,8-6.84.46-13.89-2.28-22.87-4,1.36,5.9,2.53,11,3.68,16-2.09.59-3.55,1.5-4.19,1.1-24.66-15.42-24.64-15.43-43.11,6.53-6.29,7.47-12.64,14.88-22.21,20.28,10.6-26.1,21.28-52.16,31.75-78.3,3.06-7.63,7.14-3.49,11-1.29C323,528.61,330.12,537.81,341.11,541.14Z" transform="translate(-21.19 -69.77)"/><path class="cls-7" d="M516.75,412.67c16,11.54,32,23,47.88,34.71,3.8,2.82,10.46,3.85,8.85,11.14l-27.41-5.2,3.08,15.54c-4,2.7-6.36.16-8.13-1.65-14-14.22-24.71-11.85-35,4.82-6.06,9.79-14.76,17.94-24.19,25.68C493.37,469.08,500,438.8,516.75,412.67Z" transform="translate(-21.19 -69.77)"/><path class="cls-7" d="M761.94,355.59c7.19,8.58,14.21,17.3,21.63,25.67,4.85,5.48,2.08,6.55-3.25,6.76-18.82-11.33-34.59-8.64-49.56,8.12-9.56,10.71-21.92,18.92-36.1,25.78q23-39.24,45.91-78.48c3-5.2,6-4.67,9.54-.6C753.93,347.2,758,351.35,761.94,355.59Z" transform="translate(-21.19 -69.77)"/><path d="M436.24,892l-10.69-3.56c27.51-14.27,121.64-65.39,121.15-131.85-.29-40.89-34-78-101.75-111.85l.39-.79c68.05,34,108.19,71.39,108.49,112.64.19,25-14.5,53-39.2,78.4C489.1,861.23,458.78,880.35,436.24,892Z" transform="translate(-21.19 -69.77)"/><path d="M635.28,857.42a18.5,18.5,0,0,1-6.68-1.2c-16.58,24-44.59,45.06-83.85,62.13l5.52,5.76c35.43-15.41,63.88-38.5,82-60.58,1.67-2,3.2-4.12,4.66-6.19C636.36,857.38,635.83,857.42,635.28,857.42Z" transform="translate(-21.19 -69.77)"/><path d="M502.61,646.16h.32q-12.49-4.87-25.57-9.34l-.29.84q12,4.08,23.36,8.6A21.78,21.78,0,0,1,502.61,646.16Z" transform="translate(-21.19 -69.77)"/><path d="M514.81,651a16.79,16.79,0,0,1,1.68,2,394.72,394.72,0,0,1,35.7,17.91,21.48,21.48,0,0,1,2.15-.11c.7,0,1.38,0,2,.1A432.47,432.47,0,0,0,514.81,651Z" transform="translate(-21.19 -69.77)"/><path d="M607.28,706.74c-10.93-10.3-24.09-20-38.94-29a18.33,18.33,0,0,1,2.16,4.34,251.3,251.3,0,0,1,33.44,26.17c1.15,1.09,2.24,2.19,3.34,3.29a15.16,15.16,0,0,1,2.82-2.09C609.16,708.57,608.25,707.64,607.28,706.74Z" transform="translate(-21.19 -69.77)"/><path d="M653.61,795.82c-.81-19.49-8.12-40-21-59.38a16,16,0,0,1-3.17,3.2,118.8,118.8,0,0,1,17.08,56.18,95.86,95.86,0,0,1-2.88,27.91,15.79,15.79,0,0,1,6.41,6.21A108,108,0,0,0,653.61,795.82Z" transform="translate(-21.19 -69.77)"/><path d="M708.44,755C681.82,701.8,604.3,656.38,499.76,632.77l2.5.48c53.53,12.09,104.25,30.17,140.66,52.1,34.06,20.53,55,42.37,67.7,67.71Z" transform="translate(-21.19 -69.77)"/><path class="cls-8" d="M459.87,245.37c-7.79-1.2-14.73,1.31-21.22,5.32-8.87,5.49-17.81,10.88-26.45,16.72-4,2.7-7.35,3.27-12.06,1.58-17.17-6.18-34.53-11.8-51.83-17.61q-15.65-5.26-31.31-10.5a3.2,3.2,0,0,0-3.07.11c-4.32,2.79-8.71,5.46-13,8.24-1.65,1.06-1.64,1.93-.06,3.16,2.35,1.81,4.73,3.58,7.1,5.36l25.49,19.13.78.65c0,.1,27.91,20.15,28.18,21.1-.23.22-2.82,1.72-3.05,1.94q-12.25,7.65-24.5,15.32a3.24,3.24,0,0,1-3.17.43c-7.87-2.72-15.8-5.26-23.68-7.95a3.93,3.93,0,0,0-3.83.56c-2.77,1.85-5.63,3.57-8.45,5.34s-2.85,2.33-.26,4.3Q308.7,328.73,322,338.85a4.26,4.26,0,0,1,1.74,2.81c2.23,11.06,4.53,22.1,6.82,33.15.52,2.49,1.25,2.8,3.39,1.47,3.14-1.95,6.24-4,9.41-5.87a3.35,3.35,0,0,0,1.7-2.78c1-8.34,2.16-16.66,3.17-25a3.06,3.06,0,0,1,1.63-2.53c7.38-4.59,14.74-9.23,22.1-13.86,1.73-1.1,3.45-2.23,5.35-3.46.23,1.08.39,1.78.53,2.49q7.23,36.17,14.44,72.34c.57,2.81,1.21,3.09,3.61,1.59,4.05-2.53,8.08-5.11,12.16-7.61a3.36,3.36,0,0,0,1.75-2.74c.91-7.77,1.95-15.52,2.92-23.28q2.58-20.58,5.15-41.17c.88-7.15,2-14.29,2.5-21.48h0c.11-.57.23-1.13.34-1.7a5.73,5.73,0,0,0,.33-2.75h0c0-2.72,1.55-4.12,3.74-5.46q14.91-9.15,29.64-18.6c6.18-4,11.09-9.06,13.38-16.25C469.92,251.44,466.87,246.45,459.87,245.37Z" transform="translate(-21.19 -69.77)"/><rect class="cls-1" x="889.81" y="625.1" width="82" height="20"/><rect class="cls-1" x="1739.81" y="625.1" width="82" height="20"/></svg>